<svg width="37" height="25" viewBox="0 0 37 25" fill="none" xmlns="http://www.w3.org/2000/svg">
<g id="GooglePay">
<g id="Rectangle">
<rect x="0.206909" width="36.2069" height="25" rx="4" fill="white"/>
<rect x="0.706909" y="0.5" width="35.2069" height="24" rx="3.5" stroke="#838E9E" stroke-opacity="0.3"/>
</g>
<path id="Shape" fill-rule="evenodd" clip-rule="evenodd" d="M17.6346 15.0738V12.2544V12.2538H19.158C19.7861 12.2542 20.3139 12.0566 20.7416 11.6611C21.1737 11.2857 21.4153 10.7459 21.403 10.1833C21.4116 9.6238 21.1704 9.08804 20.7416 8.71384C20.3177 8.31612 19.7476 8.09912 19.158 8.11106H16.7125V15.0738H17.6346ZM17.6346 11.3988V8.96829V8.96773H19.1809C19.5256 8.95833 19.8578 9.09287 20.0932 9.33717C20.3302 9.5606 20.4638 9.86749 20.4638 10.188C20.4638 10.5085 20.3302 10.8154 20.0932 11.0388C19.8549 11.278 19.5237 11.4087 19.1809 11.3988H17.6346Z" fill="#5F6368"/>
<path id="Shape_2" fill-rule="evenodd" clip-rule="evenodd" d="M25.1417 10.6845C24.7472 10.3312 24.2093 10.1545 23.5278 10.1545C22.6523 10.1545 21.9912 10.4657 21.5444 11.0879L22.3566 11.584C22.6567 11.1625 23.0642 10.9518 23.5793 10.9518C23.9077 10.948 24.2255 11.0645 24.4693 11.2779C24.7124 11.4729 24.8523 11.7635 24.8501 12.0695V12.274C24.4958 12.0795 24.0449 11.9823 23.4974 11.9823C22.856 11.9831 22.3432 12.129 21.9591 12.4201C21.575 12.7112 21.3829 13.1032 21.3829 13.5962C21.3746 14.0451 21.5753 14.4737 21.9293 14.7629C22.2936 15.074 22.7462 15.2295 23.2872 15.2295C23.921 15.2295 24.4288 14.9573 24.8106 14.4129H24.8507V15.074H25.7327V12.1379C25.7331 11.5223 25.5361 11.0379 25.1417 10.6845ZM22.6407 14.199C22.4475 14.0639 22.3336 13.8466 22.3348 13.6157C22.3348 13.3562 22.4603 13.1401 22.7128 12.9623C22.9629 12.7871 23.2752 12.6995 23.6498 12.6995C24.1641 12.6995 24.565 12.8107 24.8525 13.0329C24.8525 13.4084 24.6998 13.7357 24.3943 14.0145C24.1192 14.2815 23.7462 14.4317 23.3571 14.4323C23.0977 14.437 22.8446 14.3546 22.6407 14.199Z" fill="#5F6368"/>
<path id="Path" fill-rule="evenodd" clip-rule="evenodd" d="M30.7955 10.3101L27.7166 17.1739H26.7648L27.9074 14.7723L25.8828 10.3101H26.8851L28.3483 13.7323H28.3684L29.7916 10.3101H30.7955Z" fill="#5F6368"/>
<path id="Path_2" fill-rule="evenodd" clip-rule="evenodd" d="M13.9085 11.6466C13.9088 11.374 13.8851 11.1019 13.8374 10.8333H9.94873V12.3738H12.176C12.0839 12.871 11.7864 13.3101 11.3524 13.5894V14.5894H12.6817C13.46 13.8933 13.9085 12.8638 13.9085 11.6466Z" fill="#4285F4"/>
<path id="Path_3" fill-rule="evenodd" clip-rule="evenodd" d="M9.94879 15.5555C11.0616 15.5555 11.9985 15.201 12.6818 14.5899L11.3525 13.5899C10.9825 13.8333 10.506 13.9722 9.94879 13.9722C8.87323 13.9722 7.96033 13.2688 7.63388 12.321H6.26453V13.3516C6.96447 14.7027 8.38999 15.5554 9.94879 15.5555Z" fill="#34A853"/>
<path id="Path_4" fill-rule="evenodd" clip-rule="evenodd" d="M7.63388 12.3212C7.4613 11.8245 7.4613 11.2867 7.63388 10.7901V9.75952H6.26452C5.67908 10.8896 5.67908 12.2217 6.26452 13.3517L7.63388 12.3212Z" fill="#FBBC04"/>
<path id="Path_5" fill-rule="evenodd" clip-rule="evenodd" d="M9.94879 9.13877C10.5368 9.12945 11.1051 9.34498 11.5306 9.73877L12.7075 8.59711C11.9613 7.91715 10.9726 7.54384 9.94879 7.55544C8.38999 7.55551 6.96447 8.40824 6.26453 9.75933L7.63388 10.7899C7.96033 9.84211 8.87323 9.13877 9.94879 9.13877Z" fill="#EA4335"/>
</g>
</svg>
