<svg width="37" height="25" viewBox="0 0 37 25" fill="none" xmlns="http://www.w3.org/2000/svg">
<g id="JCB">
<g id="Rectangle">
<rect width="36.2069" height="25" rx="4" fill="white"/>
<rect x="0.5" y="0.5" width="35.2069" height="24" rx="3.5" stroke="#838E9E" stroke-opacity="0.3"/>
</g>
<path id="Shape" fill-rule="evenodd" clip-rule="evenodd" d="M23.9647 12.5696H23.9799H24.0093H24.0387H24.0681H24.0975H24.1269H24.1563H24.1857H24.2151H24.2445H24.2739H24.3033H24.3327H24.3621H24.3915H24.4209H24.4503H24.4797H24.5091H24.5385H24.5679H24.5973H24.6267H24.6561H24.6855H24.7149H24.7443H24.7737H24.8031H24.8325H24.8619H24.8913H24.9207H24.9501H24.9795H25.0089H25.0383H25.0677H25.0971H25.1265H25.1559H25.1853H25.2147H25.2441H25.2735H25.3029H25.3323H25.3617H25.3911H25.4205H25.4499H25.4793H25.5088H25.5381H25.5675H25.597H25.6263H25.6558H25.6852H25.7145H25.739L25.744 12.5697C25.753 12.5699 25.7629 12.5703 25.7734 12.5709C25.7828 12.5714 25.7927 12.572 25.8027 12.5728C25.8124 12.5735 25.8223 12.5743 25.8322 12.5752C25.8421 12.5761 25.8519 12.5771 25.8616 12.5782C25.8717 12.5793 25.8816 12.5805 25.891 12.5817C25.9015 12.5831 25.9114 12.5846 25.9204 12.5861C25.9268 12.5872 25.9328 12.5883 25.9381 12.5894L25.9498 12.5921C25.9596 12.5943 25.9694 12.5968 25.9792 12.5995C25.989 12.6022 25.9988 12.6051 26.0086 12.6082C26.0184 12.6113 26.0282 12.6146 26.038 12.6181C26.0478 12.6217 26.0576 12.6254 26.0674 12.6294C26.0773 12.6334 26.087 12.6376 26.0968 12.642C26.1067 12.6465 26.1165 12.6512 26.1262 12.6561C26.1361 12.6611 26.1459 12.6663 26.1556 12.6717C26.1655 12.6773 26.1753 12.6831 26.185 12.6891C26.1949 12.6952 26.2047 12.7015 26.2144 12.7081C26.2243 12.7149 26.2341 12.7219 26.2438 12.7291C26.2537 12.7366 26.2635 12.7443 26.2732 12.7522C26.2832 12.7605 26.293 12.7691 26.3026 12.7778C26.3126 12.787 26.3224 12.7964 26.332 12.806C26.3421 12.8162 26.3518 12.8268 26.3614 12.8375C26.3715 12.849 26.3813 12.8607 26.3908 12.8728C26.401 12.8858 26.4108 12.8992 26.4202 12.9129C26.4305 12.9279 26.4403 12.9433 26.4496 12.9591C26.4601 12.9769 26.4699 12.9952 26.479 13.0141C26.4898 13.0364 26.4996 13.0594 26.5084 13.083C26.5202 13.1148 26.53 13.1477 26.5378 13.1817C26.5512 13.2407 26.5585 13.3028 26.5585 13.3676C26.5585 13.4327 26.5513 13.4951 26.5378 13.5542C26.53 13.5883 26.5202 13.6213 26.5084 13.6532C26.4996 13.6769 26.4898 13.6999 26.479 13.7223C26.4699 13.7411 26.4601 13.7595 26.4496 13.7773C26.4403 13.7932 26.4305 13.8086 26.4202 13.8236C26.4108 13.8373 26.401 13.8506 26.3908 13.8636C26.3813 13.8757 26.3715 13.8874 26.3614 13.8989C26.3518 13.9097 26.3421 13.9202 26.332 13.9303C26.3224 13.94 26.3126 13.9494 26.3026 13.9585C26.293 13.9673 26.2832 13.9758 26.2732 13.984C26.2635 13.9919 26.2538 13.9997 26.2438 14.0071C26.2341 14.0143 26.2243 14.0213 26.2144 14.028C26.2047 14.0346 26.1949 14.0409 26.185 14.047C26.1753 14.0529 26.1655 14.0587 26.1556 14.0642C26.1459 14.0696 26.1361 14.0748 26.1262 14.0798C26.1165 14.0846 26.1067 14.0893 26.0968 14.0938C26.087 14.0982 26.0773 14.1023 26.0674 14.1063C26.0576 14.1102 26.0478 14.114 26.038 14.1175C26.0282 14.1209 26.0184 14.1242 26.0086 14.1273C25.9988 14.1303 25.989 14.1332 25.9792 14.1358C25.9694 14.1384 25.9596 14.1409 25.9498 14.1431L25.9381 14.1457C25.9328 14.1469 25.9268 14.1481 25.9204 14.1493C25.9114 14.1508 25.9015 14.1523 25.891 14.1538C25.8816 14.155 25.8717 14.1562 25.8616 14.1573C25.8519 14.1584 25.8421 14.1594 25.8322 14.1602C25.8223 14.1611 25.8124 14.1619 25.8027 14.1626C25.7927 14.1633 25.7828 14.164 25.7734 14.1645C25.7629 14.165 25.753 14.1654 25.744 14.1656L25.7282 14.1658H25.7145H25.6852H25.6558H25.6263H25.597H25.5675H25.5381H25.5088H25.4793H25.4499H25.4205H25.3911H25.3617H25.3323H25.3029H25.2735H25.2441H25.2147H25.1853H25.1559H25.1265H25.0971H25.0677H25.0383H25.0089H24.9795H24.9501H24.9207H24.8913H24.8619H24.8325H24.8031H24.7737H24.7443H24.7149H24.6855H24.6561H24.6267H24.5973H24.5679H24.5385H24.5091H24.4797H24.4503H24.4209H24.3915H24.3621H24.3327H24.3033H24.2739H24.2445H24.2151H24.1857H24.1563H24.1269H24.0975H24.0681H24.0387H24.0093H23.9799H23.9647V12.5696ZM26.3321 10.763C26.3439 10.8166 26.3502 10.8733 26.3502 10.9331C26.3502 10.9927 26.3439 11.0495 26.3321 11.103C26.3245 11.1374 26.3146 11.1705 26.3027 11.2022C26.2939 11.2253 26.2841 11.2477 26.2733 11.2693C26.2642 11.2874 26.2544 11.305 26.2439 11.322C26.2346 11.3371 26.2247 11.3517 26.2145 11.3659C26.2051 11.3788 26.1953 11.3914 26.1851 11.4035C26.1756 11.4149 26.1658 11.4259 26.1557 11.4365C26.1462 11.4466 26.1364 11.4563 26.1263 11.4657C26.1167 11.4746 26.1069 11.4833 26.0969 11.4917C26.0873 11.4998 26.0775 11.5075 26.0675 11.515C26.0579 11.5223 26.0481 11.5293 26.0381 11.5361C26.0284 11.5426 26.0186 11.5489 26.0087 11.555C25.999 11.5609 25.9892 11.5666 25.9793 11.572C25.9696 11.5773 25.9598 11.5825 25.9499 11.5874C25.9402 11.5922 25.9304 11.5967 25.9205 11.6011C25.9108 11.6054 25.901 11.6095 25.8911 11.6133C25.8813 11.6171 25.8716 11.6207 25.8617 11.6242C25.852 11.6275 25.8422 11.6307 25.8323 11.6336C25.8225 11.6366 25.8127 11.6393 25.8029 11.6419C25.7931 11.6444 25.7833 11.6467 25.7735 11.6488C25.7638 11.651 25.7539 11.6529 25.7441 11.6546L25.7369 11.6559C25.7312 11.6569 25.7236 11.658 25.7147 11.6591C25.706 11.6602 25.696 11.6613 25.6853 11.6624C25.676 11.6633 25.6661 11.6643 25.6559 11.6651C25.6463 11.6659 25.6364 11.6666 25.6265 11.6672C25.6166 11.6679 25.6067 11.6684 25.5971 11.6688C25.5869 11.6692 25.577 11.6695 25.5677 11.6695L25.563 11.6695H25.5383H25.5089H25.4795H25.4501H25.4207H25.3913H25.3619H25.3325H25.3031H25.2737H25.2443H25.2149H25.1855H25.1561H25.1267H25.0973H25.0679H25.0385H25.0091H24.9797H24.9503H24.9209H24.8915H24.8621H24.8327H24.8033H24.7739H24.7445H24.7151H24.6857H24.6563H24.6269H24.5975H24.5681H24.5387H24.5093H24.4799H24.4505H24.4211H24.3917H24.3623H24.3329H24.3035H24.2741H24.2447H24.2153H24.1859H24.1565H24.1271H24.0977H24.0683H24.0389H24.0095H23.9801H23.9647V10.1966H23.9801H24.0095H24.0389H24.0683H24.0977H24.1271H24.1565H24.1859H24.2153H24.2447H24.2741H24.3035H24.3329H24.3623H24.3917H24.4211H24.4505H24.4799H24.5093H24.5387H24.5681H24.5975H24.6269H24.6563H24.6857H24.7151H24.7445H24.7739H24.8033H24.8327H24.8621H24.8915H24.9209H24.9503H24.9797H25.0091H25.0385H25.0679H25.0973H25.1267H25.1561H25.1855H25.2149H25.2443H25.2737H25.3031H25.3325H25.3619H25.3913H25.4207H25.4501H25.4795H25.5089H25.5383H25.5677H25.5801L25.5971 10.1971C25.6067 10.1975 25.6166 10.1981 25.6265 10.1987C25.6364 10.1993 25.6463 10.2001 25.6559 10.2008C25.6661 10.2017 25.676 10.2026 25.6853 10.2035C25.696 10.2045 25.706 10.2056 25.7147 10.2066C25.7236 10.2076 25.7312 10.2085 25.7369 10.2093L25.7441 10.2106C25.7539 10.2124 25.7638 10.2143 25.7735 10.2165C25.7833 10.2187 25.7931 10.221 25.8029 10.2235C25.8127 10.2261 25.8225 10.2289 25.8323 10.2318C25.8422 10.2348 25.852 10.238 25.8617 10.2414C25.8716 10.2448 25.8813 10.2485 25.8911 10.2523C25.901 10.2562 25.9108 10.2603 25.9205 10.2646C25.9304 10.269 25.9402 10.2735 25.9499 10.2783C25.9598 10.2833 25.9696 10.2884 25.9793 10.2937C25.9892 10.2992 25.999 10.3049 26.0087 10.3108C26.0186 10.3169 26.0284 10.3231 26.0381 10.3297C26.0481 10.3365 26.0579 10.3435 26.0675 10.3508C26.0775 10.3583 26.0873 10.3661 26.0969 10.3741C26.1069 10.3825 26.1167 10.3912 26.1263 10.4002C26.1364 10.4096 26.1462 10.4193 26.1557 10.4293C26.1658 10.44 26.1756 10.451 26.1851 10.4623C26.1953 10.4745 26.2051 10.4871 26.2145 10.5C26.2247 10.5142 26.2346 10.5288 26.2439 10.5438C26.2544 10.5609 26.2642 10.5784 26.2733 10.5966C26.2841 10.6182 26.2939 10.6406 26.3027 10.6638C26.3146 10.6955 26.3245 10.7286 26.3321 10.763ZM29.9782 3.125H29.9902L29.9902 18.253C29.9902 18.3434 29.986 18.4328 29.9782 18.5212C29.9713 18.5989 29.9615 18.6758 29.9488 18.7518C29.9402 18.8029 29.9304 18.8535 29.9194 18.9036C29.9104 18.9444 29.9006 18.9849 29.89 19.0251C29.8808 19.0597 29.8709 19.0941 29.8606 19.1283C29.8512 19.1592 29.8415 19.1899 29.8311 19.2204C29.8218 19.248 29.8119 19.2754 29.8018 19.3027C29.7923 19.328 29.7825 19.3533 29.7723 19.3783C29.7628 19.4019 29.753 19.4253 29.7429 19.4485C29.7334 19.4706 29.7236 19.4925 29.7135 19.5142C29.7039 19.5349 29.6942 19.5556 29.6841 19.576C29.6745 19.5956 29.6647 19.6152 29.6547 19.6345C29.6451 19.6531 29.6353 19.6716 29.6253 19.6899C29.6157 19.7075 29.6059 19.725 29.5959 19.7424C29.5863 19.7593 29.5765 19.776 29.5665 19.7927C29.5568 19.8089 29.547 19.825 29.5371 19.8411C29.5274 19.8566 29.5177 19.8722 29.5077 19.8876C29.498 19.9025 29.4882 19.9173 29.4783 19.932C29.4686 19.9464 29.4588 19.9606 29.4489 19.9748C29.4392 19.9887 29.4294 20.0025 29.4195 20.0163C29.4098 20.0297 29.4 20.0431 29.3901 20.0563C29.3804 20.0692 29.3705 20.082 29.3606 20.0948C29.3509 20.1073 29.3412 20.1199 29.3313 20.1323C29.3215 20.1444 29.3118 20.1565 29.3018 20.1685C29.2921 20.1802 29.2823 20.1919 29.2724 20.2035C29.2627 20.215 29.253 20.2265 29.243 20.2378C29.2333 20.2489 29.2235 20.2598 29.2136 20.2707C29.2039 20.2815 29.1941 20.2922 29.1842 20.3029C29.1745 20.3134 29.1647 20.3239 29.1548 20.3342C29.1451 20.3444 29.1353 20.3544 29.1254 20.3644C29.1156 20.3744 29.1059 20.3844 29.096 20.3942C29.0863 20.4038 29.0764 20.4133 29.0666 20.4227C29.0568 20.4322 29.0471 20.4416 29.0372 20.4509C29.0275 20.46 29.0176 20.4691 29.0078 20.4781C28.998 20.487 28.9882 20.4959 28.9784 20.5047C28.9686 20.5133 28.9589 20.522 28.949 20.5306C28.9392 20.539 28.9294 20.5474 28.9196 20.5557C28.9098 20.564 28.9 20.5723 28.8902 20.5804C28.8804 20.5885 28.8706 20.5964 28.8608 20.6043C28.851 20.6122 28.8412 20.62 28.8314 20.6278C28.8216 20.6355 28.8118 20.6429 28.8019 20.6505C28.7922 20.6579 28.7824 20.6654 28.7726 20.6728C28.7628 20.6801 28.753 20.6872 28.7431 20.6944C28.7333 20.7015 28.7236 20.7087 28.7137 20.7157C28.704 20.7226 28.6941 20.7293 28.6843 20.7361C28.6745 20.7429 28.6648 20.7497 28.6549 20.7564C28.6452 20.763 28.6353 20.7694 28.6255 20.7759C28.6157 20.7823 28.606 20.7888 28.5961 20.7951C28.5864 20.8014 28.5765 20.8075 28.5667 20.8137C28.5569 20.8198 28.5471 20.8259 28.5373 20.8319C28.5275 20.8379 28.5177 20.8438 28.5079 20.8496L28.4785 20.8669C28.4687 20.8726 28.4589 20.8782 28.4491 20.8838C28.4393 20.8893 28.4295 20.8947 28.4197 20.9001C28.4099 20.9055 28.4001 20.911 28.3903 20.9163C28.3805 20.9215 28.3707 20.9266 28.3609 20.9317C28.351 20.9368 28.3413 20.9421 28.3314 20.9471C28.3217 20.9521 28.3119 20.9568 28.3021 20.9617C28.2923 20.9665 28.2825 20.9714 28.2726 20.9761C28.2629 20.9808 28.253 20.9854 28.2432 20.99L28.2138 21.0037L28.1844 21.0169C28.1747 21.0213 28.1648 21.0255 28.155 21.0297C28.1452 21.0339 28.1355 21.0383 28.1256 21.0424C28.1159 21.0465 28.106 21.0503 28.0962 21.0543C28.0864 21.0583 28.0767 21.0624 28.0668 21.0662C28.057 21.0701 28.0472 21.0737 28.0374 21.0775C28.0276 21.0812 28.0179 21.0849 28.008 21.0886L27.9786 21.0993C27.9688 21.1029 27.959 21.1062 27.9492 21.1096C27.9394 21.113 27.9297 21.1166 27.9198 21.1199C27.91 21.1232 27.9002 21.1262 27.8904 21.1294L27.861 21.1388C27.8512 21.1419 27.8414 21.1449 27.8316 21.1479L27.8022 21.1565C27.7924 21.1594 27.7826 21.1623 27.7727 21.1651C27.763 21.1678 27.7531 21.1704 27.7434 21.173C27.7336 21.1756 27.7238 21.1784 27.7139 21.1809L27.6845 21.1882L27.6551 21.1954L27.6257 21.2023C27.616 21.2046 27.6061 21.2066 27.5963 21.2087C27.5865 21.2108 27.5767 21.213 27.5669 21.2151L27.5375 21.2209L27.5081 21.2265C27.4983 21.2283 27.4885 21.2303 27.4787 21.232C27.4689 21.2337 27.4591 21.2352 27.4493 21.2368L27.4199 21.2417L27.3905 21.246L27.3611 21.2501C27.3513 21.2515 27.3415 21.253 27.3317 21.2542C27.3219 21.2555 27.312 21.2564 27.3023 21.2576C27.2925 21.2587 27.2827 21.2599 27.2729 21.2609C27.2631 21.262 27.2533 21.263 27.2435 21.264C27.2337 21.2649 27.2238 21.2657 27.214 21.2666C27.2042 21.2674 27.1944 21.2684 27.1846 21.2691C27.1749 21.2699 27.165 21.2705 27.1552 21.2712L27.1258 21.273C27.116 21.2736 27.1062 21.2743 27.0964 21.2748C27.0867 21.2753 27.0768 21.2755 27.067 21.2759L27.0376 21.277L27.0082 21.2778C26.9984 21.278 26.9886 21.278 26.9788 21.2781L26.9494 21.2785L26.9433 21.2786H26.92H26.8906H26.8612H26.8318H26.8024H26.773H26.7435H26.7142H26.6847H26.6553H26.6259H26.5965H26.5671H26.5377H26.5083H26.4789H26.4495H26.4201H26.3907H26.3613H26.3319H26.3025H26.2731H26.2437H26.2143H26.1848H26.1554H26.126H26.0966H26.0672H26.0378H26.0084H25.979H25.9496H25.9202H25.8908H25.8614H25.832H25.8026H25.7732H25.7438H25.7143H25.685H25.6555H25.6261H25.5967H25.5673H25.5379H25.5085H25.4791H25.4497H25.4203H25.3909H25.3615H25.3321H25.3027H25.2733H25.2439H25.2145H25.1851H25.1556H25.1262H25.0968H25.0674H25.038H25.0086H24.9792H24.9498H24.9204H24.891H24.8616H24.8322H24.8028H24.7734H24.744H24.7146H24.6852H24.6557H24.6264H24.5969H24.5675H24.5381H24.5087H24.4793H24.4499H24.4205H24.3911H24.3617H24.3323H24.3029H24.2735H24.2441H24.2147H24.1852H24.1559H24.1264H24.097H24.0676H24.0382H24.0088H23.9794H23.95H23.9206H23.8912H23.8618H23.8324H23.803H23.7736H23.7442H23.7148H23.6854H23.656H23.6265H23.5972H23.5677H23.5383H23.5089H23.4795H23.4501H23.4207H23.3913H23.3619H23.3325H23.3031H23.2737H23.2443H23.2149H23.1855H23.1561H23.1267H23.0973H23.0678H23.0384H23.009H22.9796H22.9502H22.9208H22.8914H22.862H22.8326H22.8032H22.7738H22.7444H22.715H22.6856H22.6562H22.6268H22.5973H22.568H22.5385H22.4751V15.1104H22.5385H22.568H22.5973H22.6268H22.6562H22.6856H22.715H22.7444H22.7738H22.8032H22.8326H22.862H22.8914H22.9208H22.9502H22.9796H23.009H23.0384H23.0678H23.0973H23.1267H23.1561H23.1855H23.2149H23.2443H23.2737H23.3031H23.3325H23.3619H23.3913H23.4207H23.4501H23.4795H23.5089H23.5383H23.5677H23.5972H23.6265H23.656H23.6854H23.7148H23.7442H23.7736H23.803H23.8324H23.8618H23.8912H23.9206H23.95H23.9794H24.0088H24.0382H24.0676H24.097H24.1264H24.1559H24.1852H24.2147H24.2441H24.2735H24.3029H24.3323H24.3617H24.3911H24.4205H24.4499H24.4793H24.5087H24.5381H24.5675H24.5969H24.6264H24.6557H24.6852H24.7146H24.744H24.7734H24.8028H24.8322H24.8616H24.891H24.9204H24.9498H24.9792H25.0086H25.038H25.0674H25.0968H25.1262H25.1556H25.1851H25.2145H25.2439H25.2733H25.3027H25.3321H25.3615H25.3909H25.4203H25.4497H25.4791H25.5085H25.5379H25.5673H25.5967H25.6261H25.6555H25.685H25.7143H25.7438H25.7732H25.8026H25.832H25.8614H25.8908H25.9202H25.9496H25.979H26.0084H26.0378H26.0672H26.0966H26.126H26.1554H26.1848H26.2143H26.2437H26.2731H26.3025H26.3319H26.3613H26.3907H26.4201H26.4495H26.4789H26.5083H26.5377H26.5671H26.5965H26.6259H26.6553H26.6847H26.7142H26.7435H26.773H26.8024H26.8318H26.8612H26.8906H26.92H26.9494H26.9788H27.0082H27.0376H27.067H27.0964H27.1258H27.1552H27.1846H27.2002L27.214 15.1102L27.2435 15.11L27.2729 15.1094C27.2827 15.1092 27.2925 15.109 27.3023 15.1087C27.3121 15.1083 27.3219 15.1079 27.3317 15.1074L27.3611 15.1061L27.3905 15.1043L27.4199 15.1023L27.4493 15.1L27.4787 15.0973C27.4885 15.0964 27.4983 15.0955 27.5081 15.0945C27.5179 15.0935 27.5277 15.0923 27.5375 15.0912L27.5669 15.0876C27.5767 15.0864 27.5865 15.0852 27.5963 15.0838C27.6062 15.0825 27.6159 15.081 27.6257 15.0795C27.6356 15.078 27.6454 15.0766 27.6551 15.075L27.6845 15.0701L27.7139 15.0648C27.7238 15.063 27.7336 15.0613 27.7434 15.0593C27.7532 15.0574 27.763 15.0553 27.7727 15.0533L27.8022 15.047C27.812 15.0448 27.8218 15.0426 27.8316 15.0403C27.8414 15.038 27.8512 15.0356 27.861 15.0332C27.8708 15.0308 27.8806 15.0283 27.8904 15.0258C27.9002 15.0232 27.91 15.0206 27.9198 15.0179C27.9296 15.0152 27.9394 15.0124 27.9492 15.0096C27.959 15.0068 27.9688 15.0039 27.9786 15.0009L28.008 14.9918C28.0179 14.9886 28.0276 14.9854 28.0374 14.9821C28.0472 14.9788 28.0571 14.9756 28.0668 14.9721C28.0767 14.9687 28.0865 14.9653 28.0962 14.9617C28.1061 14.9581 28.1159 14.9543 28.1256 14.9506C28.1355 14.9468 28.1453 14.943 28.155 14.9391C28.1649 14.9352 28.1747 14.9312 28.1844 14.9272C28.1943 14.9231 28.2041 14.9188 28.2138 14.9146C28.2237 14.9103 28.2335 14.9059 28.2432 14.9014C28.2531 14.8969 28.2629 14.8924 28.2726 14.8878C28.2825 14.8831 28.2923 14.8784 28.3021 14.8736C28.3119 14.8686 28.3217 14.8637 28.3314 14.8586C28.3413 14.8535 28.3511 14.8482 28.3609 14.843C28.3708 14.8376 28.3806 14.8322 28.3903 14.8267C28.4002 14.8212 28.41 14.8155 28.4197 14.8098C28.4295 14.804 28.4394 14.7981 28.4491 14.7921C28.459 14.786 28.4688 14.7798 28.4785 14.7735C28.4884 14.7672 28.4982 14.7607 28.5079 14.7541C28.5178 14.7475 28.5276 14.7407 28.5373 14.7338C28.5472 14.7268 28.557 14.7198 28.5667 14.7126C28.5766 14.7053 28.5864 14.6979 28.5961 14.6904C28.606 14.6827 28.6158 14.6749 28.6255 14.6671C28.6354 14.659 28.6452 14.6509 28.6549 14.6426C28.6649 14.6341 28.6747 14.6255 28.6843 14.6168C28.6943 14.6079 28.7041 14.5988 28.7137 14.5897C28.7237 14.5802 28.7335 14.5707 28.7431 14.561C28.7531 14.551 28.7629 14.5408 28.7726 14.5306C28.7825 14.52 28.7923 14.5092 28.8019 14.4983C28.8119 14.487 28.8218 14.4756 28.8314 14.464C28.8414 14.4519 28.8512 14.4397 28.8608 14.4273C28.8708 14.4144 28.8806 14.4013 28.8902 14.388C28.9003 14.3739 28.91 14.3596 28.9196 14.3451C28.9297 14.3297 28.9395 14.3142 28.949 14.2985C28.9592 14.2815 28.969 14.2644 28.9784 14.247C28.9886 14.2281 28.9985 14.209 29.0078 14.1895C29.0182 14.1678 29.028 14.1458 29.0372 14.1234C29.0478 14.0977 29.0576 14.0717 29.0666 14.0453C29.0777 14.0126 29.0874 13.9794 29.096 13.9455C29.1085 13.896 29.1184 13.8452 29.1254 13.7932C29.1339 13.73 29.1384 13.6651 29.1384 13.5984C29.1384 13.5335 29.134 13.4704 29.1254 13.4092C29.1184 13.3588 29.1085 13.3098 29.096 13.262C29.0874 13.2295 29.0776 13.1975 29.0666 13.1662C29.0576 13.1405 29.0478 13.1152 29.0372 13.0904C29.028 13.0689 29.0182 13.0477 29.0078 13.0268C28.9985 13.008 28.9886 12.9895 28.9784 12.9713C28.9689 12.9545 28.9592 12.9379 28.949 12.9215C28.9395 12.9063 28.9297 12.8914 28.9196 12.8766C28.91 12.8627 28.9003 12.8488 28.8902 12.8353C28.8806 12.8224 28.8708 12.8098 28.8608 12.7973C28.8512 12.7854 28.8414 12.7736 28.8314 12.7619C28.8217 12.7507 28.812 12.7397 28.8019 12.7287C28.7923 12.7182 28.7825 12.7078 28.7726 12.6976C28.7629 12.6877 28.7531 12.678 28.7431 12.6684C28.7335 12.659 28.7237 12.6498 28.7137 12.6407C28.7041 12.6319 28.6942 12.6232 28.6843 12.6145C28.6747 12.6061 28.6649 12.5978 28.6549 12.5897C28.6452 12.5817 28.6354 12.5738 28.6255 12.566C28.6158 12.5584 28.606 12.5509 28.5961 12.5435C28.5864 12.5362 28.5766 12.5291 28.5667 12.522C28.557 12.515 28.5472 12.5082 28.5373 12.5014C28.5276 12.4948 28.5178 12.4883 28.5079 12.4818C28.4982 12.4755 28.4884 12.4692 28.4785 12.463C28.4688 12.457 28.459 12.451 28.4491 12.4451C28.4394 12.4393 28.4296 12.4336 28.4197 12.4279C28.4099 12.4224 28.4002 12.4169 28.3903 12.4115C28.3806 12.4062 28.3708 12.401 28.3609 12.3958C28.3511 12.3907 28.3413 12.3857 28.3314 12.3807C28.3217 12.3758 28.3119 12.3709 28.3021 12.3662C28.2923 12.3615 28.2825 12.3568 28.2726 12.3522C28.2629 12.3477 28.2531 12.3433 28.2432 12.339C28.2335 12.3347 28.2237 12.3304 28.2138 12.3262C28.2041 12.3221 28.1943 12.318 28.1844 12.314C28.1747 12.3101 28.1649 12.3061 28.155 12.3022C28.1453 12.2984 28.1355 12.2947 28.1256 12.291C28.1159 12.2874 28.1061 12.2839 28.0962 12.2803C28.0865 12.2768 28.0767 12.2735 28.0668 12.2701C28.057 12.2667 28.0473 12.2634 28.0374 12.2602C28.0277 12.257 28.0179 12.2539 28.008 12.2508C27.9983 12.2477 27.9884 12.2448 27.9786 12.2418L27.9492 12.2333C27.9394 12.2305 27.9296 12.2277 27.9198 12.225C27.91 12.2224 27.9002 12.2199 27.8904 12.2174C27.8806 12.2148 27.8708 12.2124 27.861 12.21C27.8512 12.2076 27.8414 12.2052 27.8316 12.203C27.8218 12.2007 27.812 12.1985 27.8022 12.1963C27.7924 12.1942 27.7826 12.1921 27.7727 12.1901C27.763 12.188 27.7532 12.186 27.7434 12.1841L27.7139 12.1785L27.6845 12.1733C27.6748 12.1716 27.665 12.1699 27.6551 12.1683L27.6257 12.1637C27.616 12.1623 27.6061 12.1609 27.5963 12.1595L27.5669 12.1555L27.5375 12.1519L27.5081 12.1486L27.4787 12.1455L27.4493 12.1428L27.4199 12.1403L27.3927 12.1383L27.3927 12.1033L27.4199 12.0991L27.4493 12.0943C27.4591 12.0926 27.4689 12.0909 27.4787 12.0891L27.5081 12.0835C27.518 12.0816 27.5278 12.0796 27.5375 12.0775L27.5669 12.0712C27.5767 12.069 27.5866 12.0667 27.5963 12.0644C27.6062 12.062 27.616 12.0596 27.6257 12.0571C27.6356 12.0546 27.6454 12.052 27.6551 12.0494C27.665 12.0467 27.6748 12.044 27.6845 12.0412C27.6944 12.0384 27.7042 12.0356 27.7139 12.0327C27.7238 12.0297 27.7336 12.0266 27.7434 12.0236C27.7532 12.0204 27.763 12.0172 27.7727 12.0139C27.7826 12.0106 27.7924 12.0072 27.8022 12.0037C27.812 12.0002 27.8218 11.9967 27.8316 11.9931C27.8414 11.9894 27.8512 11.9857 27.861 11.9819C27.8708 11.978 27.8806 11.9741 27.8904 11.9701C27.9003 11.966 27.9101 11.9619 27.9198 11.9577C27.9297 11.9534 27.9394 11.9491 27.9492 11.9446C27.9591 11.9401 27.9689 11.9355 27.9786 11.9309C27.9885 11.9262 27.9983 11.9214 28.008 11.9165C28.0179 11.9115 28.0277 11.9065 28.0374 11.9014C28.0473 11.8962 28.0571 11.8909 28.0668 11.8855C28.0767 11.8801 28.0865 11.8745 28.0962 11.8689C28.1061 11.8632 28.1159 11.8573 28.1256 11.8514C28.1355 11.8454 28.1453 11.8393 28.155 11.8331C28.1649 11.8268 28.1747 11.8203 28.1844 11.8138C28.1944 11.8072 28.2042 11.8004 28.2138 11.7936C28.2238 11.7865 28.2336 11.7795 28.2432 11.7723C28.2532 11.7649 28.263 11.7574 28.2726 11.7499C28.2826 11.7421 28.2924 11.7342 28.3021 11.7262C28.312 11.718 28.3218 11.7096 28.3314 11.7012C28.3414 11.6925 28.3512 11.6837 28.3609 11.6747C28.3708 11.6655 28.3807 11.6562 28.3903 11.6467C28.4002 11.6369 28.4101 11.6271 28.4197 11.6171C28.4297 11.6066 28.4395 11.5961 28.4491 11.5854C28.4591 11.5742 28.4689 11.5629 28.4785 11.5515C28.4885 11.5396 28.4983 11.5275 28.5079 11.5153C28.518 11.5024 28.5278 11.4893 28.5373 11.4761C28.5474 11.4621 28.5572 11.4479 28.5667 11.4336C28.5768 11.4183 28.5867 11.4028 28.5961 11.3872C28.6063 11.3702 28.6161 11.353 28.6255 11.3357C28.6358 11.3166 28.6456 11.2973 28.6549 11.2777C28.6654 11.2557 28.6752 11.2335 28.6843 11.2109C28.695 11.1847 28.7048 11.1581 28.7137 11.1312C28.7249 11.0973 28.7348 11.0629 28.7431 11.028C28.7567 10.9715 28.7665 10.9138 28.7726 10.8551C28.7773 10.8087 28.7798 10.7618 28.7798 10.7144C28.7798 10.6643 28.7773 10.6155 28.7726 10.5678C28.7665 10.507 28.7566 10.4482 28.7431 10.3915C28.7347 10.3561 28.7249 10.3214 28.7137 10.2876C28.7048 10.2606 28.695 10.2341 28.6843 10.2081C28.6751 10.1857 28.6653 10.1637 28.6549 10.1421C28.6456 10.1229 28.6358 10.1039 28.6255 10.0853C28.6161 10.0682 28.6063 10.0514 28.5961 10.0348C28.5866 10.0195 28.5768 10.0043 28.5667 9.98942C28.5572 9.97545 28.5474 9.9617 28.5373 9.94815C28.5278 9.93532 28.518 9.92266 28.5079 9.9102C28.4983 9.89829 28.4885 9.8865 28.4785 9.87491C28.4689 9.8639 28.4591 9.85308 28.4491 9.84235C28.4395 9.83204 28.4297 9.82188 28.4197 9.81183C28.41 9.80215 28.4002 9.79261 28.3903 9.7832C28.3806 9.77407 28.3708 9.76505 28.3609 9.75619C28.3512 9.74759 28.3414 9.7391 28.3314 9.73072C28.3218 9.72259 28.312 9.71456 28.3021 9.70664C28.2924 9.69894 28.2826 9.69132 28.2726 9.68384C28.263 9.67653 28.2532 9.66934 28.2432 9.66225C28.2335 9.6553 28.2237 9.64848 28.2138 9.64173C28.2041 9.63514 28.1944 9.62866 28.1844 9.62224C28.1747 9.61595 28.1649 9.60975 28.155 9.60365C28.1453 9.59767 28.1355 9.59179 28.1256 9.58598C28.1159 9.58027 28.1061 9.57466 28.0962 9.56911C28.0865 9.56367 28.0767 9.55829 28.0668 9.55302C28.0571 9.54781 28.0473 9.54273 28.0374 9.53767C28.0277 9.53271 28.0179 9.52782 28.008 9.52301C27.9983 9.51826 27.9885 9.51354 27.9786 9.50897C27.9689 9.50444 27.959 9.49996 27.9492 9.49561C27.9394 9.4913 27.9297 9.48713 27.9198 9.48295C27.9101 9.47883 27.9002 9.47479 27.8904 9.4708C27.8806 9.46688 27.8708 9.463 27.861 9.4592C27.8512 9.45545 27.8414 9.45172 27.8316 9.44809C27.8218 9.44451 27.812 9.441 27.8022 9.43754C27.7924 9.43413 27.7826 9.43081 27.7727 9.42752C27.763 9.42428 27.7532 9.42111 27.7434 9.41798C27.7336 9.41489 27.7238 9.41184 27.7139 9.40886C27.7042 9.40591 27.6944 9.40295 27.6845 9.40012C27.6748 9.39734 27.665 9.39465 27.6551 9.39199C27.6454 9.38933 27.6356 9.38676 27.6257 9.38422L27.5963 9.37679C27.5865 9.37439 27.5768 9.37204 27.5669 9.36977C27.5572 9.36752 27.5474 9.36534 27.5375 9.36321L27.5081 9.35699C27.4983 9.35498 27.4886 9.35295 27.4787 9.35106C27.4689 9.34917 27.4591 9.34743 27.4493 9.34564L27.4199 9.34051C27.4101 9.33886 27.4003 9.33719 27.3905 9.33564L27.3611 9.33121L27.3317 9.3271L27.3023 9.32323L27.2729 9.31976L27.2435 9.31662L27.214 9.31369L27.1846 9.31112L27.1552 9.30887L27.1258 9.30679L27.0964 9.30512L27.0848 9.30447L27.067 9.30338L27.0376 9.30166L27.0082 9.30004L26.9788 9.29851L26.9494 9.29711L26.92 9.29585L26.8906 9.29479L26.8612 9.29389L26.8318 9.29324L26.8024 9.29285L26.7861 9.2928H26.773H26.7435H26.7142H26.6847H26.6553H26.6259H26.5965H26.5671H26.5377H26.5083H26.4789H26.4495H26.4201H26.3907H26.3613H26.3319H26.3025H26.2731H26.2437H26.2143H26.1848H26.1554H26.126H26.0966H26.0672H26.0378H26.0084H25.979H25.9496H25.9202H25.8908H25.8614H25.832H25.8026H25.7732H25.7438H25.7143H25.685H25.6555H25.6261H25.5967H25.5673H25.5379H25.5085H25.4791H25.4497H25.4203H25.3909H25.3615H25.3321H25.3027H25.2733H25.2439H25.2145H25.1851H25.1556H25.1262H25.0968H25.0674H25.038H25.0086H24.9792H24.9498H24.9204H24.891H24.8616H24.8322H24.8028H24.7734H24.744H24.7146H24.6852H24.6557H24.6264H24.5969H24.5675H24.5381H24.5087H24.4793H24.4499H24.4205H24.3911H24.3617H24.3323H24.3029H24.2735H24.2441H24.2147H24.1852H24.1559H24.1264H24.097H24.0676H24.0382H24.0088H23.9794H23.95H23.9206H23.8912H23.8618H23.8324H23.803H23.7736H23.7442H23.7148H23.6854H23.656H23.6265H23.5972H23.5677H23.5383H23.5089H23.4795H23.4501H23.4207H23.3913H23.3619H23.3325H23.3031H23.2737H23.2443H23.2149H23.1855H23.1561H23.1267H23.0973H23.0678H23.0384H23.009H22.9796H22.9502H22.9208H22.8914H22.862H22.8326H22.8032H22.7738H22.7444H22.715H22.6856H22.6562H22.6268H22.5973H22.568H22.5385H22.4751V6.15085C22.4751 5.93947 22.497 5.73321 22.5385 5.53405C22.5475 5.49141 22.5573 5.44912 22.568 5.40718C22.5771 5.37128 22.5869 5.33565 22.5973 5.30029C22.6067 5.26871 22.6165 5.23734 22.6268 5.20619C22.6362 5.17772 22.6459 5.1494 22.6562 5.12133C22.6656 5.09528 22.6754 5.06939 22.6856 5.04368C22.6951 5.01967 22.7049 4.99578 22.715 4.97208C22.7245 4.94972 22.7343 4.92745 22.7444 4.90535C22.7539 4.88437 22.7638 4.86353 22.7738 4.84281C22.7834 4.82304 22.7932 4.80341 22.8032 4.78387C22.8128 4.76509 22.8226 4.74645 22.8326 4.72789C22.8422 4.71 22.852 4.69224 22.862 4.67457C22.8717 4.65743 22.8815 4.64044 22.8914 4.62352C22.9011 4.60711 22.9108 4.59077 22.9208 4.57458C22.9305 4.55887 22.9403 4.54329 22.9502 4.52777C22.9599 4.51274 22.9697 4.49785 22.9796 4.48302C22.9893 4.46849 22.9991 4.45402 23.009 4.43967C23.0188 4.42561 23.0285 4.41154 23.0384 4.39765C23.0481 4.38419 23.058 4.3709 23.0678 4.35762C23.0775 4.34455 23.0874 4.33157 23.0973 4.31867C23.107 4.30596 23.1167 4.29321 23.1267 4.28067C23.1363 4.26847 23.1462 4.25647 23.1561 4.24441C23.1658 4.23253 23.1756 4.22074 23.1855 4.20903C23.1952 4.19746 23.205 4.18589 23.2149 4.17446C23.2246 4.16333 23.2344 4.15239 23.2443 4.1414C23.254 4.13051 23.2638 4.11959 23.2737 4.10885C23.2834 4.09832 23.2932 4.08789 23.3031 4.07748C23.3128 4.06722 23.3226 4.05703 23.3325 4.04688C23.3422 4.03689 23.352 4.02689 23.3619 4.01702C23.3716 4.00731 23.3815 3.99775 23.3913 3.98819C23.4011 3.97868 23.4108 3.96907 23.4207 3.9597C23.4304 3.95053 23.4403 3.94157 23.4501 3.93252C23.4599 3.92352 23.4696 3.91449 23.4795 3.90561C23.4893 3.89687 23.4991 3.8883 23.5089 3.87971C23.5187 3.87116 23.5285 3.86262 23.5383 3.8542C23.5481 3.84589 23.5579 3.83771 23.5677 3.82953C23.5775 3.82142 23.5873 3.81334 23.5972 3.80535C23.6069 3.79744 23.6167 3.78962 23.6265 3.78185L23.656 3.75888L23.6854 3.73652C23.6951 3.72918 23.7049 3.7219 23.7148 3.71468C23.7245 3.70754 23.7343 3.70043 23.7442 3.69338L23.7736 3.67264C23.7833 3.66584 23.7931 3.65909 23.803 3.65241L23.8324 3.63263L23.8618 3.61339C23.8716 3.60707 23.8814 3.60078 23.8912 3.59458L23.9206 3.57633C23.9304 3.57031 23.9402 3.56428 23.95 3.55837C23.9598 3.55252 23.9696 3.54683 23.9794 3.54109C23.9892 3.53536 23.999 3.52957 24.0088 3.52396C24.0185 3.51841 24.0284 3.51306 24.0382 3.50762C24.048 3.50217 24.0578 3.49663 24.0676 3.4913C24.0774 3.48605 24.0873 3.48097 24.097 3.47581C24.1068 3.47066 24.1166 3.46548 24.1264 3.46042C24.1362 3.45541 24.146 3.45054 24.1559 3.44566C24.1656 3.44079 24.1754 3.4359 24.1852 3.43113L24.2147 3.41702C24.2244 3.4124 24.2343 3.4079 24.2441 3.40337C24.2539 3.39887 24.2636 3.39429 24.2735 3.38989C24.2832 3.38553 24.2931 3.38137 24.3029 3.37711C24.3127 3.37285 24.3224 3.36852 24.3323 3.36435C24.342 3.36024 24.3519 3.35632 24.3617 3.3523C24.3715 3.34831 24.3812 3.34426 24.3911 3.34037L24.4205 3.32887L24.4499 3.31776C24.4597 3.31408 24.4695 3.31035 24.4793 3.3068C24.4891 3.30326 24.4989 3.29995 24.5087 3.29651C24.5185 3.29307 24.5283 3.28956 24.5381 3.28622C24.5479 3.28291 24.5577 3.27978 24.5675 3.27657L24.5969 3.2671C24.6067 3.264 24.6165 3.26088 24.6264 3.25788C24.6361 3.2549 24.646 3.2521 24.6557 3.24922C24.6655 3.24631 24.6753 3.24331 24.6852 3.24053C24.6949 3.23777 24.7048 3.2352 24.7146 3.23254C24.7244 3.22988 24.7341 3.22719 24.744 3.22462L24.7734 3.21707C24.7831 3.21463 24.793 3.2123 24.8028 3.20996C24.8126 3.20761 24.8223 3.20509 24.8322 3.20284C24.8419 3.20061 24.8518 3.19858 24.8616 3.19643L24.891 3.19006L24.9204 3.18403C24.9302 3.1821 24.94 3.18028 24.9498 3.17844C24.9596 3.17658 24.9694 3.17459 24.9792 3.17283C24.989 3.17106 24.9988 3.16956 25.0086 3.16791L25.038 3.16307C25.0478 3.16152 25.0576 3.15993 25.0674 3.15847C25.0772 3.15702 25.087 3.15574 25.0968 3.15438C25.1067 3.15303 25.1164 3.15155 25.1262 3.15029C25.136 3.14903 25.1458 3.14792 25.1556 3.14676L25.1851 3.14342C25.1949 3.14235 25.2046 3.14117 25.2145 3.1402C25.2242 3.13923 25.2341 3.13848 25.2439 3.13761L25.2733 3.13502L25.3027 3.13282C25.3125 3.13212 25.3223 3.13156 25.3321 3.13095C25.3419 3.13037 25.3516 3.12962 25.3615 3.12911C25.3713 3.12861 25.3811 3.12832 25.3909 3.1279L25.4203 3.12682C25.4301 3.1265 25.4399 3.12609 25.4497 3.12587C25.4595 3.12565 25.4693 3.12563 25.4791 3.12548C25.4889 3.12534 25.4987 3.12517 25.5085 3.12512L25.5159 3.12502H25.5379H25.5673H25.5967H25.6261H25.6555H25.685H25.7143H25.7438H25.7732H25.8026H25.832H25.8614H25.8908H25.9202H25.9496H25.979H26.0084H26.0378H26.0672H26.0966H26.126H26.1554H26.1848H26.2143H26.2437H26.2731H26.3025H26.3319H26.3613H26.3907H26.4201H26.4495H26.4789H26.5083H26.5377H26.5671H26.5965H26.6259H26.6553H26.6847H26.7142H26.7435H26.773H26.8024H26.8318H26.8612H26.8906H26.92H26.9494H26.9788H27.0082H27.0376H27.067H27.0964H27.1258H27.1552H27.1846H27.214H27.2435H27.2729H27.3023H27.3317H27.3611H27.3905H27.4199H27.4493H27.4787H27.5081H27.5375H27.5669H27.5963H27.6257H27.6551H27.6845H27.7139H27.7434H27.7727H27.8022H27.8316H27.861H27.8904H27.9198H27.9492H27.9786H28.008H28.0374H28.0668H28.0962H28.1256H28.155H28.1844H28.2138H28.2432H28.2726H28.3021H28.3314H28.3609H28.3903H28.4197H28.4491H28.4785H28.5079H28.5373H28.5667H28.5961H28.6255H28.6549H28.6843H28.7137H28.7431H28.7726H28.8019H28.8314H28.8608H28.8902H28.9196H28.949H28.9784H29.0078H29.0372H29.0666H29.096H29.1254H29.1548H29.1842H29.2136H29.243H29.2724H29.3018H29.3313H29.3606H29.3901H29.4195H29.4489H29.4783H29.5077H29.5371H29.5665H29.5959H29.6253H29.6547H29.6841H29.7135H29.7429H29.7723H29.8018H29.8311H29.8606H29.89H29.9194H29.9488H29.9782V3.125Z" fill="#54B230"/>
<path id="Shape_2" fill-rule="evenodd" clip-rule="evenodd" d="M5.61829 13.6231V6.15082C5.61829 5.94005 5.64003 5.73432 5.68134 5.5357C5.69021 5.49305 5.70005 5.45079 5.7107 5.40882C5.71982 5.37288 5.72964 5.33723 5.74005 5.30182C5.74933 5.27025 5.75913 5.23893 5.76939 5.20781C5.7788 5.17932 5.78852 5.15095 5.79876 5.12283C5.80824 5.09681 5.81794 5.07093 5.8281 5.04525C5.83758 5.02124 5.84738 4.99731 5.85747 4.97359C5.867 4.95122 5.87677 4.929 5.88682 4.90693C5.89637 4.88594 5.90617 4.86513 5.91616 4.84441C5.92571 4.82461 5.93556 4.80496 5.94553 4.7854C5.95511 4.76662 5.9649 4.74798 5.97487 4.72944C5.98447 4.71155 5.99427 4.69379 6.00422 4.67612C6.01384 4.65901 6.02362 4.64199 6.03358 4.6251C6.04323 4.60868 6.05296 4.59232 6.06293 4.57611C6.07258 4.56042 6.08238 4.54486 6.0923 4.52937C6.1019 4.51436 6.11177 4.49945 6.12164 4.48461C6.13131 4.47009 6.14106 4.45562 6.15098 4.44127C6.16073 4.42718 6.17038 4.41312 6.18035 4.3992C6.18998 4.38577 6.19985 4.3725 6.20969 4.35921C6.21939 4.34614 6.22917 4.33317 6.23906 4.32027C6.24879 4.30759 6.25849 4.29481 6.26841 4.28227C6.27806 4.27009 6.28793 4.25811 6.29775 4.24608C6.30745 4.2342 6.31722 4.22236 6.32712 4.21062C6.33684 4.19908 6.34657 4.18756 6.35646 4.17616C6.36614 4.165 6.37598 4.15404 6.38583 4.14302C6.39555 4.13211 6.40528 4.12122 6.41517 4.11047C6.42485 4.09994 6.4347 4.08956 6.44452 4.07917C6.45424 4.06889 6.46402 4.0587 6.47389 4.04855C6.48361 4.03856 6.49336 4.02856 6.50323 4.01869C6.51293 4.00898 6.52278 3.99942 6.5326 3.98986C6.54237 3.98035 6.55205 3.97076 6.56194 3.9614C6.57162 3.95222 6.58149 3.94327 6.59129 3.93421C6.60106 3.92519 6.61076 3.91613 6.62065 3.90725C6.63035 3.89854 6.6402 3.88999 6.65 3.8814C6.65977 3.87286 6.66949 3.86429 6.67937 3.85587C6.68909 3.84756 6.69889 3.83941 6.70871 3.83123C6.71843 3.82312 6.72821 3.81501 6.73805 3.80702C6.74778 3.79913 6.7576 3.79131 6.76742 3.78352C6.77717 3.7758 6.78692 3.76815 6.79676 3.76055C6.80649 3.75302 6.81631 3.74559 6.82613 3.73819C6.83588 3.73085 6.84566 3.72354 6.85548 3.71633L6.88482 3.69508C6.89457 3.68808 6.90434 3.68114 6.91419 3.67426C6.92391 3.66746 6.93371 3.66073 6.94353 3.65405C6.95328 3.6474 6.96305 3.64079 6.97288 3.63425C6.98263 3.62779 6.99242 3.62143 7.00224 3.61506C7.01199 3.60874 7.02174 3.60238 7.03159 3.59616C7.04131 3.59001 7.05113 3.58401 7.06096 3.57795C7.07073 3.57193 7.08045 3.56583 7.0903 3.55992C7.1 3.55409 7.10985 3.54843 7.11964 3.54269C7.12944 3.53695 7.13914 3.53112 7.14901 3.52548C7.15871 3.51994 7.16858 3.51464 7.17836 3.50919C7.18815 3.50375 7.19788 3.49823 7.20772 3.49288C7.21745 3.4876 7.22727 3.48252 7.23707 3.47736C7.24684 3.47221 7.25659 3.46703 7.26641 3.46197C7.27616 3.45696 7.28596 3.45205 7.29578 3.44713L7.32512 3.43266C7.3349 3.42789 7.34467 3.42312 7.35449 3.41847C7.36424 3.41385 7.37404 3.40937 7.38384 3.40485C7.39363 3.40032 7.40333 3.3957 7.41318 3.39129C7.4229 3.38691 7.43275 3.3828 7.44255 3.37854C7.45232 3.37428 7.46207 3.36995 7.47189 3.36578C7.48164 3.36167 7.49146 3.3577 7.50126 3.35368L7.5306 3.34177L7.55995 3.3302L7.58931 3.31912C7.59911 3.31544 7.60881 3.31164 7.61866 3.30806C7.62838 3.30452 7.63825 3.30123 7.64803 3.29779C7.6578 3.29436 7.66755 3.29087 7.67737 3.28753L7.70671 3.27778L7.73608 3.26831C7.74586 3.26521 7.7556 3.26204 7.76543 3.25904C7.77515 3.25606 7.785 3.25323 7.79477 3.25035C7.80457 3.24745 7.81432 3.2445 7.82414 3.24169C7.83389 3.2389 7.84368 3.23631 7.85348 3.23363L7.88285 3.22571C7.89262 3.22315 7.90237 3.22053 7.91219 3.21806C7.92194 3.2156 7.93176 3.21334 7.94154 3.21097C7.95131 3.2086 7.96108 3.20613 7.97091 3.20386C7.98065 3.20161 7.99048 3.1995 8.00025 3.19735L8.02962 3.191C8.03939 3.18892 8.04914 3.18682 8.05896 3.18486C8.06871 3.18292 8.07853 3.18113 8.0883 3.17927C8.0981 3.1774 8.10785 3.17547 8.11767 3.1737C8.12745 3.17193 8.13722 3.17033 8.14702 3.16866L8.17638 3.16382C8.18616 3.16227 8.19591 3.1606 8.20573 3.15913C8.21548 3.15765 8.2253 3.15642 8.23507 3.15504C8.24485 3.15368 8.25462 3.15223 8.26444 3.15095L8.29378 3.14729L8.32315 3.14398C8.33295 3.14289 8.34267 3.14163 8.3525 3.14064C8.36225 3.13964 8.37207 3.13892 8.38184 3.13802L8.41121 3.13546C8.42098 3.13463 8.43075 3.13383 8.44055 3.13313C8.45033 3.13243 8.46012 3.13187 8.46992 3.13127C8.47972 3.13066 8.48947 3.12996 8.49926 3.12943C8.50901 3.1289 8.51881 3.12853 8.52861 3.1281L8.55798 3.12698C8.56775 3.12665 8.5775 3.12614 8.58732 3.1259C8.59707 3.12565 8.60689 3.12568 8.61666 3.12553C8.62644 3.12539 8.63623 3.12522 8.64603 3.12517L8.67538 3.125H8.70474H8.73409H8.76343H8.7928H8.82214H8.85151H8.88086H8.9102H8.93957H8.96891H8.99828H9.02762H9.05697H9.08633H9.11568H9.14505H9.17439H9.20373H9.2331H9.26245H9.29181H9.32116H9.3505H9.37987H9.40921H9.43858H9.46793H9.49727H9.52664H9.55598H9.58535H9.61469H9.64404H9.6734H9.70275H9.73209H9.76146H9.7908H9.82017H9.84952H9.87886H9.90823H9.93757H9.96694H9.99628H10.0256H10.055H10.0843H10.1137H10.1431H10.1724H10.2018H10.2311H10.2605H10.2898H10.3192H10.3485H10.3779H10.4072H10.4366H10.4659H10.4953H10.5246H10.554H10.5834H10.6127H10.6421H10.6714H10.7008H10.7301H10.7595H10.7888H10.8182H10.8475H10.8769H10.9062H10.9356H10.9649H10.9943H11.0237H11.053H11.0824H11.1117H11.1411H11.1704H11.1998H11.2291H11.2585H11.2878H11.3172H11.3465H11.3759H11.4052H11.4346H11.464H11.4933H11.5227H11.552H11.5814H11.6107H11.6401H11.6694H11.6988H11.7281H11.7575H11.7868H11.8162H11.8456H11.8749H11.9043H11.9336H11.9629H11.9923H12.0217H12.051H12.0804H12.1097H12.1391H12.1684H12.1978H12.2271H12.2565H12.2859H12.3152H12.3446H12.3739H12.4033H12.4326H12.462H12.4913H12.5207H12.55H12.5794H12.6087H12.6381H12.6674H12.6968H12.7262H12.7555H12.7848H12.8142H12.8436H12.8729H12.9023H12.9316H12.961H12.9903H13.0197H13.049H13.0784H13.1077H13.1327V18.253C13.1327 18.3846 13.1241 18.5142 13.1077 18.6414C13.0999 18.7026 13.0899 18.7632 13.0784 18.8232C13.0696 18.8689 13.0599 18.9142 13.049 18.9591C13.0399 18.9969 13.0302 19.0345 13.0197 19.0718C13.0104 19.1045 13.0006 19.1369 12.9903 19.1691C12.981 19.1983 12.9712 19.2273 12.961 19.2561C12.9515 19.2828 12.9418 19.3093 12.9316 19.3356C12.9221 19.3601 12.9124 19.3845 12.9023 19.4088C12.8928 19.4316 12.883 19.4543 12.8729 19.4769C12.8634 19.4983 12.8536 19.5195 12.8436 19.5407C12.834 19.5608 12.8242 19.5809 12.8142 19.6008C12.8046 19.6199 12.7948 19.6389 12.7848 19.6578C12.7752 19.676 12.7655 19.694 12.7555 19.712C12.7458 19.7294 12.7361 19.7467 12.7262 19.7638C12.7165 19.7804 12.7067 19.7969 12.6968 19.8132C12.6872 19.829 12.6773 19.8447 12.6674 19.8603C12.6578 19.8756 12.648 19.8908 12.6381 19.9059C12.6284 19.9206 12.6187 19.9353 12.6087 19.9499C12.5991 19.964 12.5893 19.978 12.5794 19.9919C12.5697 20.0056 12.5599 20.0191 12.55 20.0326C12.5403 20.0458 12.5306 20.059 12.5207 20.0721C12.511 20.0848 12.5012 20.0975 12.4913 20.1101C12.4816 20.1224 12.4718 20.1346 12.462 20.1468C12.4522 20.1589 12.4425 20.1709 12.4326 20.1827C12.4229 20.1943 12.4131 20.2058 12.4033 20.2172C12.3936 20.2285 12.3838 20.2397 12.3739 20.2508C12.3642 20.2618 12.3545 20.2729 12.3446 20.2837C12.3349 20.2943 12.325 20.3047 12.3152 20.3152C12.3054 20.3256 12.2957 20.336 12.2859 20.3462C12.2762 20.3563 12.2663 20.3662 12.2565 20.3761C12.2468 20.3859 12.237 20.3956 12.2271 20.4053C12.2174 20.4149 12.2076 20.4243 12.1978 20.4338C12.1881 20.4431 12.1783 20.4522 12.1684 20.4614C12.1587 20.4704 12.149 20.4795 12.1391 20.4885C12.1294 20.4973 12.1195 20.5059 12.1097 20.5146C12.0999 20.5232 12.0903 20.5319 12.0804 20.5404C12.0707 20.5487 12.0608 20.5568 12.051 20.5651C12.0413 20.5733 12.0315 20.5816 12.0217 20.5896C12.012 20.5976 12.0021 20.6053 11.9923 20.6131C11.9825 20.6209 11.9728 20.6288 11.9629 20.6365C11.9532 20.644 11.9434 20.6514 11.9336 20.6588C11.9238 20.6662 11.9141 20.6737 11.9043 20.681C11.8946 20.6881 11.8847 20.6951 11.8749 20.7022C11.8651 20.7093 11.8554 20.7164 11.8456 20.7233C11.8359 20.7302 11.826 20.7368 11.8162 20.7435C11.8064 20.7503 11.7967 20.7571 11.7868 20.7637C11.7771 20.7702 11.7673 20.7765 11.7575 20.7829C11.7477 20.7893 11.738 20.7958 11.7281 20.8021C11.7184 20.8082 11.7086 20.8142 11.6988 20.8203C11.689 20.8263 11.6793 20.8325 11.6694 20.8385C11.6597 20.8443 11.6498 20.85 11.6401 20.8558C11.6303 20.8616 11.6206 20.8674 11.6107 20.873C11.601 20.8786 11.5912 20.8841 11.5814 20.8896C11.5716 20.8951 11.5618 20.9005 11.552 20.9059C11.5423 20.9112 11.5325 20.9165 11.5227 20.9217L11.4933 20.9371C11.4835 20.9421 11.4738 20.9472 11.464 20.9522C11.4542 20.9571 11.4444 20.9618 11.4346 20.9667C11.4248 20.9715 11.4151 20.9764 11.4052 20.9811C11.3955 20.9857 11.3857 20.9902 11.3759 20.9947C11.3661 20.9993 11.3564 21.0039 11.3465 21.0083C11.3368 21.0127 11.327 21.017 11.3172 21.0213L11.2878 21.034L11.2585 21.0464C11.2487 21.0504 11.2389 21.0544 11.2291 21.0583C11.2193 21.0622 11.2096 21.0663 11.1998 21.0701C11.19 21.0739 11.1802 21.0775 11.1704 21.0812C11.1606 21.0849 11.1509 21.0886 11.1411 21.0923C11.1313 21.0958 11.1215 21.0993 11.1117 21.1027L11.0824 21.113L11.053 21.123C11.0433 21.1262 11.0334 21.1293 11.0237 21.1325C11.0139 21.1356 11.0041 21.1389 10.9943 21.1419C10.9846 21.1449 10.9747 21.1477 10.9649 21.1507L10.9356 21.1593L10.9062 21.1676C10.8965 21.1703 10.8867 21.1729 10.8769 21.1755C10.8671 21.1781 10.8573 21.1809 10.8475 21.1834C10.8378 21.1859 10.8279 21.1881 10.8182 21.1905C10.8084 21.1929 10.7986 21.1953 10.7888 21.1976L10.7595 21.2043L10.7301 21.2107C10.7203 21.2128 10.7106 21.215 10.7008 21.2171C10.691 21.219 10.6812 21.2207 10.6714 21.2226C10.6616 21.2245 10.6519 21.2264 10.6421 21.2282L10.6127 21.2335C10.6029 21.2352 10.5932 21.2367 10.5834 21.2383C10.5736 21.2399 10.5638 21.2416 10.554 21.2431C10.5443 21.2446 10.5344 21.2459 10.5246 21.2473L10.4953 21.2514C10.4855 21.2527 10.4758 21.254 10.4659 21.2552C10.4562 21.2564 10.4464 21.2575 10.4366 21.2586C10.4268 21.2597 10.417 21.2609 10.4072 21.2619C10.3975 21.2629 10.3877 21.2638 10.3779 21.2647L10.3485 21.2673C10.3387 21.2681 10.329 21.2691 10.3192 21.2699C10.3094 21.2706 10.2996 21.2711 10.2898 21.2717L10.2605 21.2735L10.2311 21.2751C10.2214 21.2756 10.2115 21.2758 10.2018 21.2762C10.192 21.2766 10.1822 21.277 10.1724 21.2773C10.1626 21.2776 10.1528 21.2777 10.1431 21.2779L10.1137 21.2782C10.1046 21.2783 10.0956 21.2786 10.0865 21.2786H10.055H10.0256H9.99628H9.96694H9.93757H9.90823H9.87886H9.84952H9.82017H9.7908H9.76146H9.73209H9.70275H9.6734H9.64404H9.61469H9.58535H9.55598H9.52664H9.49727H9.46793H9.43858H9.40921H9.37987H9.3505H9.32116H9.29181H9.26245H9.2331H9.20373H9.17439H9.14505H9.11568H9.08633H9.05697H9.02762H8.99828H8.96891H8.93957H8.9102H8.88086H8.85151H8.82214H8.7928H8.76343H8.73409H8.70474H8.67538H8.64603H8.61666H8.58732H8.55798H8.52861H8.49926H8.46992H8.44055H8.41121H8.38184H8.3525H8.32315H8.29378H8.26444H8.23507H8.20573H8.17638H8.14702H8.11767H8.0883H8.05896H8.02962H8.00025H7.97091H7.94154H7.91219H7.88285H7.85348H7.82414H7.79477H7.76543H7.73608H7.70671H7.67737H7.64803H7.61866H7.58931H7.55995H7.5306H7.50126H7.47189H7.44255H7.41318H7.38384H7.35449H7.32512H7.29578H7.26641H7.23707H7.20772H7.17836H7.14901H7.11964H7.0903H7.06096H7.03159H7.00224H6.97288H6.94353H6.91419H6.88482H6.85548H6.82613H6.79676H6.76742H6.73805H6.70871H6.67937H6.65H6.62065H6.59129H6.56194H6.5326H6.50323H6.47389H6.44452H6.41517H6.38583H6.35646H6.32712H6.29775H6.26841H6.23906H6.20969H6.18035H6.15098H6.12164H6.0923H6.06293H6.03358H6.00422H5.97487H5.94553H5.91616H5.88682H5.85747H5.8281H5.79876H5.76939H5.74005H5.7107H5.68134H5.61829V14.9023C5.61829 14.9023 5.63998 14.9082 5.68134 14.9186L5.7107 14.9259L5.74005 14.933L5.76939 14.94L5.79876 14.9469L5.8281 14.9536L5.85747 14.9603L5.88682 14.9669L5.91616 14.9734L5.94553 14.9798L5.97487 14.9861L6.00422 14.9923L6.03358 14.9985L6.06293 15.0045L6.0923 15.0105L6.12164 15.0164L6.15098 15.0222L6.18035 15.028L6.20969 15.0337L6.23906 15.0393L6.26841 15.0448L6.29775 15.0503L6.32712 15.0557L6.35646 15.061L6.38583 15.0663L6.41517 15.0715L6.44452 15.0766L6.47389 15.0816L6.50323 15.0866L6.5326 15.0915L6.56194 15.0964L6.59129 15.1011L6.62065 15.1059L6.65 15.1105L6.67937 15.1151L6.70871 15.1196L6.73805 15.1241L6.76742 15.1285L6.79676 15.1328L6.82613 15.1371L6.85548 15.1413L6.88482 15.1454L6.91419 15.1495L6.94353 15.1535L6.97288 15.1575L7.00224 15.1614L7.03159 15.1652L7.06096 15.169L7.0903 15.1726L7.11964 15.1763L7.14901 15.1799L7.17836 15.1834L7.20772 15.1868L7.23707 15.1902L7.26641 15.1935L7.29578 15.1968L7.32512 15.2L7.35449 15.2031L7.38384 15.2062L7.41318 15.2092L7.44255 15.2122L7.47189 15.215L7.50126 15.2179L7.5306 15.2206L7.55995 15.2233L7.58931 15.226L7.61866 15.2285L7.64803 15.231L7.67737 15.2335L7.70671 15.2358L7.73608 15.2382L7.76543 15.2404L7.79477 15.2426L7.82414 15.2447L7.85348 15.2468L7.88285 15.2488L7.91219 15.2507L7.94154 15.2526L7.97091 15.2544L8.00025 15.2561L8.02962 15.2578L8.05896 15.2594L8.0883 15.261L8.11767 15.2625L8.14702 15.2638L8.17638 15.2652L8.20573 15.2665L8.23507 15.2677L8.26444 15.2689L8.29378 15.2699L8.32315 15.271L8.3525 15.2719L8.38184 15.2728L8.41121 15.2736L8.44055 15.2744L8.46992 15.275L8.49926 15.2757L8.52861 15.2762L8.55798 15.2767L8.58732 15.2771L8.61666 15.2774L8.64603 15.2777L8.67538 15.2779L8.70474 15.278L8.73409 15.2781L8.76343 15.2781L8.7928 15.2779L8.82214 15.2777L8.85151 15.2775L8.88086 15.2774L8.9102 15.2768L8.93957 15.2763L8.96891 15.2758L8.99828 15.2752L9.02762 15.2745L9.05697 15.2736L9.08633 15.2727L9.11568 15.2718L9.14505 15.2708L9.17439 15.2695L9.20373 15.2683L9.2331 15.2669L9.26245 15.2657L9.29181 15.264L9.32116 15.2624L9.3505 15.2607L9.37987 15.259L9.40921 15.257L9.43858 15.2549L9.46793 15.2529L9.49727 15.2508L9.52664 15.2484L9.55598 15.2459L9.58535 15.2434L9.61469 15.2409L9.64404 15.2381L9.6734 15.2351L9.70275 15.2322L9.73209 15.2292L9.76146 15.226L9.7908 15.2226L9.82017 15.2191L9.84952 15.2157L9.87886 15.2119L9.90823 15.208L9.93757 15.2041L9.96694 15.2001C9.97683 15.1987 9.98646 15.1972 9.99628 15.1958L10.0256 15.1914L10.055 15.187L10.0843 15.1824C10.0942 15.1808 10.1039 15.1791 10.1137 15.1774L10.1431 15.1725C10.1528 15.1709 10.1627 15.1693 10.1724 15.1676C10.1823 15.1659 10.1919 15.164 10.2018 15.1622L10.2311 15.1568L10.2605 15.1513L10.2898 15.1456C10.2997 15.1437 10.3094 15.1416 10.3192 15.1396L10.3485 15.1336L10.3779 15.1275C10.3878 15.1254 10.3974 15.1231 10.4072 15.121L10.4366 15.1144C10.4463 15.1122 10.4563 15.1101 10.4659 15.1078C10.4758 15.1055 10.4855 15.1031 10.4953 15.1007L10.5246 15.0935C10.5344 15.0911 10.5443 15.0888 10.554 15.0864C10.5639 15.0839 10.5736 15.0813 10.5834 15.0787L10.6127 15.0709C10.6225 15.0683 10.6324 15.0658 10.6421 15.0631C10.6519 15.0604 10.6616 15.0576 10.6714 15.0548L10.7008 15.0464C10.7105 15.0436 10.7204 15.0408 10.7301 15.0379L10.7595 15.029L10.7888 15.0198C10.7986 15.0168 10.8085 15.0138 10.8182 15.0107L10.8475 15.001L10.8769 14.9911C10.8866 14.9878 10.8966 14.9846 10.9062 14.9812C10.9162 14.9778 10.9258 14.9742 10.9356 14.9707L10.9649 14.96C10.9747 14.9564 10.9846 14.9529 10.9943 14.9492C11.0042 14.9455 11.0139 14.9416 11.0237 14.9378C11.0335 14.934 11.0433 14.9303 11.053 14.9264L11.0824 14.9146L11.1117 14.9023C11.1215 14.8982 11.1314 14.8942 11.1411 14.8901C11.151 14.8858 11.1606 14.8813 11.1704 14.877L11.1998 14.8639L11.2291 14.8503C11.239 14.8457 11.2487 14.841 11.2585 14.8363C11.2683 14.8316 11.2782 14.8269 11.2878 14.8222C11.2978 14.8172 11.3074 14.8122 11.3172 14.8072C11.327 14.8022 11.3369 14.7972 11.3465 14.7922C11.3565 14.787 11.3661 14.7817 11.3759 14.7764C11.3857 14.7711 11.3955 14.7658 11.4052 14.7604C11.4151 14.755 11.4249 14.7494 11.4346 14.7439C11.4445 14.7383 11.4542 14.7325 11.464 14.7268C11.4738 14.721 11.4836 14.7152 11.4933 14.7094C11.5032 14.7033 11.5129 14.6972 11.5227 14.6911C11.5325 14.685 11.5424 14.6789 11.552 14.6727C11.5619 14.6663 11.5716 14.6597 11.5814 14.6532C11.5912 14.6467 11.6011 14.6402 11.6107 14.6335C11.6207 14.6267 11.6303 14.6198 11.6401 14.6129C11.6499 14.6059 11.6598 14.5989 11.6694 14.5918C11.6794 14.5845 11.6891 14.5772 11.6988 14.5698C11.7087 14.5623 11.7185 14.5548 11.7281 14.5472C11.738 14.5394 11.7478 14.5316 11.7575 14.5237C11.7674 14.5156 11.7772 14.5074 11.7868 14.4993C11.7967 14.491 11.8066 14.4827 11.8162 14.4742C11.8262 14.4655 11.8358 14.4566 11.8456 14.4478C11.8554 14.4389 11.8653 14.4299 11.8749 14.4208C11.8849 14.4114 11.8946 14.4019 11.9043 14.3924C11.9142 14.3826 11.924 14.3727 11.9336 14.3628C11.9435 14.3527 11.9534 14.3426 11.9629 14.3324C11.9729 14.3217 11.9826 14.3108 11.9923 14.2999C12.0023 14.2888 12.012 14.2775 12.0217 14.2662C12.0316 14.2546 12.0415 14.2429 12.051 14.2311C12.061 14.2188 12.0708 14.2066 12.0804 14.1941C12.0904 14.1812 12.1001 14.168 12.1097 14.1549C12.1197 14.1412 12.1295 14.1274 12.1391 14.1135C12.1491 14.099 12.1589 14.0844 12.1684 14.0697C12.1784 14.0543 12.1882 14.0388 12.1978 14.0232C12.2078 14.0067 12.2176 13.9901 12.2271 13.9733C12.2372 13.9556 12.247 13.9377 12.2565 13.9197C12.2666 13.9005 12.2764 13.8811 12.2859 13.8615C12.296 13.8405 12.3058 13.8193 12.3152 13.798C12.3254 13.7748 12.3352 13.7515 12.3446 13.7279C12.3548 13.702 12.3647 13.6758 12.3739 13.6494C12.3844 13.6194 12.3941 13.5891 12.4033 13.5586C12.4139 13.5229 12.4237 13.4869 12.4326 13.4505C12.4437 13.4054 12.4535 13.3597 12.462 13.3136C12.4745 13.2448 12.4842 13.175 12.4913 13.1043C12.5012 13.0057 12.506 12.9053 12.506 12.8033V9.29282H12.462H12.4326H12.4033H12.3739H12.3446H12.3152H12.2859H12.2565H12.2271H12.1978H12.1684H12.1391H12.1097H12.0804H12.051H12.0217H11.9923H11.9629H11.9336H11.9043H11.8749H11.8456H11.8162H11.7868H11.7575H11.7281H11.6988H11.6694H11.6401H11.6107H11.5814H11.552H11.5227H11.4933H11.464H11.4346H11.4052H11.3759H11.3465H11.3172H11.2878H11.2585H11.2291H11.1998H11.1704H11.1411H11.1117H11.0824H11.053H11.0237H10.9943H10.9649H10.9356H10.9062H10.8769H10.8475H10.8182H10.7888H10.7595H10.7301H10.7008H10.6714H10.6421H10.6127H10.5834H10.554H10.5246H10.4953H10.4659H10.4366H10.4072H10.3779H10.3485H10.3192H10.2898H10.2605H10.2311H10.2018H10.1724H10.1431H10.1137H10.0843H10.055H10.0256H9.99628H9.96694H9.93757H9.90823L9.88598 12.8033C9.88598 12.8583 9.88356 12.9123 9.87886 12.9654C9.87286 13.0329 9.86304 13.0988 9.84952 13.1628C9.84116 13.2024 9.83136 13.2412 9.82017 13.2793C9.81125 13.3096 9.8015 13.3395 9.7908 13.3689C9.78169 13.3939 9.77187 13.4185 9.76146 13.4427C9.75217 13.4643 9.7424 13.4856 9.73209 13.5067C9.72271 13.5258 9.71299 13.5447 9.70275 13.5632C9.69334 13.5803 9.68349 13.5971 9.6734 13.6137C9.66392 13.6293 9.65415 13.6447 9.64404 13.6599C9.63453 13.6741 9.62473 13.6882 9.61469 13.702C9.60514 13.7152 9.59541 13.7283 9.58535 13.7411C9.5758 13.7533 9.56597 13.7653 9.55598 13.7772C9.5464 13.7885 9.53663 13.7997 9.52664 13.8108C9.51703 13.8214 9.50726 13.8319 9.49727 13.8423C9.48764 13.8522 9.47789 13.8621 9.46793 13.8718C9.4583 13.8812 9.44853 13.8905 9.43858 13.8996C9.42895 13.9084 9.41913 13.917 9.40921 13.9256C9.39959 13.9339 9.38979 13.9421 9.37987 13.9502C9.37022 13.958 9.3604 13.9657 9.3505 13.9734C9.34085 13.9808 9.33105 13.9881 9.32116 13.9953C9.31148 14.0023 9.30171 14.0092 9.29181 14.016C9.28214 14.0227 9.27237 14.0292 9.26245 14.0357C9.25277 14.042 9.243 14.0482 9.2331 14.0543C9.22343 14.0602 9.21363 14.0661 9.20373 14.0718C9.19406 14.0775 9.18426 14.083 9.17439 14.0885C9.16471 14.0938 9.15492 14.099 9.14505 14.1042C9.13535 14.1093 9.12557 14.1142 9.11568 14.1191C9.10598 14.1239 9.0962 14.1287 9.08633 14.1333C9.07661 14.1378 9.06686 14.1424 9.05697 14.1468C9.04724 14.1511 9.03749 14.1553 9.02762 14.1595C9.01795 14.1635 9.00813 14.1675 8.99828 14.1713C8.98858 14.1752 8.97876 14.1789 8.96891 14.1826C8.95919 14.1863 8.94944 14.1898 8.93957 14.1933C8.92984 14.1967 8.92007 14.2001 8.9102 14.2034C8.9005 14.2066 8.8907 14.2098 8.88086 14.2129C8.87116 14.2159 8.86133 14.2188 8.85151 14.2217C8.84179 14.2245 8.83199 14.2273 8.82214 14.23C8.81239 14.2327 8.80265 14.2354 8.7928 14.2379C8.78307 14.2404 8.77328 14.2428 8.76343 14.2451C8.75373 14.2474 8.74393 14.2497 8.73409 14.2519C8.72436 14.254 8.71459 14.2561 8.70474 14.2582C8.69499 14.2602 8.68525 14.2621 8.67538 14.264C8.66565 14.2658 8.65585 14.2676 8.64603 14.2693C8.63628 14.271 8.62651 14.2727 8.61666 14.2742L8.58732 14.2787C8.5776 14.2801 8.5678 14.2814 8.55798 14.2827C8.54823 14.2839 8.53848 14.2852 8.52861 14.2863L8.49926 14.2896C8.48954 14.2906 8.47974 14.2914 8.46992 14.2923C8.46015 14.2932 8.4504 14.2941 8.44055 14.2949C8.43083 14.2956 8.42103 14.2963 8.41121 14.2969C8.40146 14.2975 8.39166 14.2981 8.38184 14.2986C8.37207 14.2991 8.36234 14.2996 8.3525 14.3C8.34277 14.3004 8.33295 14.3006 8.32315 14.3009L8.29378 14.3015C8.28406 14.3017 8.27426 14.3018 8.26444 14.3018L8.23507 14.3019L8.20573 14.3017L8.17638 14.3013L8.14702 14.3006L8.11767 14.2999L8.0883 14.2989L8.05896 14.2977L8.02962 14.2964L8.00025 14.2949L7.97091 14.2932L7.94154 14.2913L7.91219 14.2892L7.88285 14.2869L7.85348 14.2845L7.82414 14.2819L7.79477 14.2791L7.76543 14.2761L7.73608 14.273L7.70671 14.2696L7.67737 14.2661L7.64803 14.2624L7.61866 14.2586L7.58931 14.2545L7.55995 14.2503L7.5306 14.2459L7.50126 14.2414L7.47189 14.2366L7.44255 14.2317L7.41318 14.2267L7.38384 14.2214L7.35449 14.216L7.32512 14.2104L7.29578 14.2047L7.26641 14.1988L7.23707 14.1927L7.20772 14.1865L7.17836 14.1801L7.14901 14.1735L7.11964 14.1668L7.0903 14.1599L7.06096 14.1528L7.03159 14.1456L7.00224 14.1383L6.97288 14.1307L6.94353 14.123L6.91419 14.1151L6.88482 14.1071L6.85548 14.099L6.82613 14.0907L6.79676 14.0822L6.76742 14.0735L6.73805 14.0648L6.70871 14.0558L6.67937 14.0467L6.65 14.0375L6.62065 14.0281L6.59129 14.0186L6.56194 14.0089L6.5326 13.9991L6.50323 13.9891L6.47389 13.979L6.44452 13.9687L6.41517 13.9583L6.38583 13.9478L6.35646 13.937L6.32712 13.9262L6.29775 13.9152L6.26841 13.9041L6.23906 13.8928L6.20969 13.8814L6.18035 13.8699L6.15098 13.8582L6.12164 13.8464L6.0923 13.8344L6.06293 13.8223L6.03358 13.8101L6.00422 13.7977L5.97487 13.7852L5.94553 13.7726L5.91616 13.7598L5.88682 13.7469L5.85747 13.7339L5.8281 13.7208L5.79876 13.7075L5.76939 13.6941L5.74005 13.6806L5.7107 13.6669L5.68134 13.6531C5.6603 13.6432 5.63929 13.6332 5.61829 13.6231Z" fill="#006CB9"/>
<path id="Shape_3" fill-rule="evenodd" clip-rule="evenodd" d="M14.1099 10.0599C14.0885 10.0771 14.0674 10.0944 14.0469 10.1119V6.15082C14.0469 5.94018 14.0686 5.73456 14.1099 5.53602C14.1188 5.49339 14.1286 5.45116 14.1392 5.40921C14.1484 5.37322 14.1582 5.33752 14.1686 5.30206C14.1779 5.27047 14.1877 5.2391 14.198 5.20795C14.2074 5.17949 14.2171 5.15117 14.2273 5.12309C14.2368 5.09707 14.2465 5.07118 14.2567 5.0455C14.2662 5.02149 14.2759 4.9976 14.286 4.97388C14.2956 4.95151 14.3053 4.92929 14.3154 4.90719C14.3249 4.88621 14.3348 4.86537 14.3447 4.84465C14.3543 4.82485 14.3641 4.80525 14.3741 4.78569C14.3837 4.76691 14.3935 4.74827 14.4035 4.72971C14.4131 4.71182 14.4229 4.69405 14.4328 4.67638C14.4424 4.65927 14.4522 4.64223 14.4622 4.62534C14.4718 4.60893 14.4815 4.59259 14.4915 4.57637C14.5011 4.56071 14.5109 4.54515 14.5209 4.52968C14.5305 4.51463 14.5403 4.49974 14.5502 4.48488C14.5599 4.47033 14.5697 4.45588 14.5796 4.44153C14.5893 4.42744 14.599 4.41336 14.6089 4.39947C14.6186 4.38601 14.6284 4.37277 14.6383 4.3595C14.648 4.34643 14.6578 4.33344 14.6677 4.32054C14.6774 4.30783 14.6871 4.2951 14.697 4.28256C14.7066 4.27038 14.7165 4.25838 14.7264 4.24635C14.7361 4.23447 14.7458 4.22263 14.7557 4.21092C14.7654 4.19935 14.7752 4.18782 14.7851 4.17642C14.7948 4.16529 14.8046 4.1543 14.8144 4.14331C14.8241 4.13242 14.8339 4.12148 14.8438 4.11071C14.8535 4.10018 14.8633 4.08977 14.8731 4.07939C14.8828 4.06913 14.8926 4.05894 14.9025 4.0488C14.9122 4.0388 14.9219 4.0288 14.9318 4.01893C14.9415 4.00925 14.9513 3.99969 14.9612 3.99013C14.9709 3.98061 14.9806 3.97103 14.9905 3.96164C15.0002 3.95246 15.0101 3.94351 15.0199 3.93446C15.0296 3.92543 15.0393 3.91638 15.0492 3.90749C15.0589 3.89878 15.0688 3.89021 15.0786 3.88162C15.0883 3.87305 15.0981 3.86451 15.108 3.85608C15.1177 3.84778 15.1275 3.83963 15.1373 3.83144C15.147 3.82334 15.1568 3.81523 15.1667 3.80722C15.1764 3.79933 15.1862 3.79151 15.196 3.78374C15.2058 3.77602 15.2155 3.76834 15.2254 3.76074C15.2351 3.75324 15.2449 3.74581 15.2547 3.7384C15.2645 3.73107 15.2742 3.72376 15.2841 3.71655C15.2938 3.70938 15.3036 3.70232 15.3134 3.69527C15.3232 3.6883 15.333 3.68133 15.3428 3.67446C15.3525 3.66766 15.3623 3.66095 15.3721 3.65425C15.3819 3.64759 15.3917 3.64096 15.4015 3.63442C15.4112 3.62796 15.421 3.62159 15.4309 3.61523C15.4406 3.60889 15.4504 3.60255 15.4602 3.59633C15.47 3.59018 15.4797 3.58418 15.4896 3.57812C15.4993 3.5721 15.5091 3.566 15.5189 3.56009C15.5286 3.55423 15.5385 3.54857 15.5483 3.54283C15.5581 3.5371 15.5678 3.53124 15.5776 3.52563C15.5873 3.52008 15.5972 3.51476 15.607 3.50931C15.6168 3.50387 15.6265 3.49837 15.6363 3.49305C15.6461 3.48777 15.6559 3.48269 15.6657 3.47751C15.6755 3.47235 15.6852 3.46717 15.695 3.46211L15.7244 3.44728L15.7538 3.43278C15.7635 3.42803 15.7733 3.42324 15.7831 3.4186C15.7929 3.41397 15.8027 3.40949 15.8125 3.40497C15.8223 3.40047 15.832 3.39582 15.8418 3.39141C15.8515 3.38703 15.8614 3.38292 15.8712 3.37866C15.881 3.3744 15.8907 3.37007 15.9005 3.3659C15.9103 3.36179 15.9201 3.35779 15.9299 3.35378L15.9592 3.34187C15.969 3.33797 15.9788 3.33407 15.9886 3.33027C15.9983 3.3265 16.0082 3.32287 16.018 3.31919C16.0277 3.31551 16.0374 3.31171 16.0473 3.30813C16.057 3.30459 16.0669 3.3013 16.0767 3.29787C16.0864 3.29443 16.0962 3.29094 16.106 3.2876C16.1158 3.28426 16.1256 3.28107 16.1354 3.27785L16.1647 3.26838C16.1745 3.26529 16.1843 3.26212 16.1941 3.25909C16.2038 3.25611 16.2137 3.25331 16.2234 3.25043C16.2332 3.24752 16.243 3.24454 16.2528 3.24174C16.2625 3.23895 16.2723 3.23636 16.2821 3.23368L16.3115 3.22576C16.3213 3.2232 16.331 3.22058 16.3409 3.21811C16.3506 3.21567 16.3604 3.21337 16.3702 3.211C16.38 3.20863 16.3897 3.20616 16.3996 3.20388C16.4093 3.20163 16.4191 3.19952 16.4289 3.19737L16.4583 3.19103C16.4681 3.18897 16.4778 3.18684 16.4876 3.18488C16.4974 3.18292 16.5072 3.18115 16.517 3.17929C16.5268 3.17743 16.5365 3.17547 16.5463 3.1737L16.5757 3.16866L16.605 3.16385C16.6148 3.16227 16.6246 3.1606 16.6344 3.15913C16.6442 3.15765 16.654 3.15642 16.6638 3.15504C16.6735 3.15368 16.6833 3.15225 16.6931 3.15097L16.7225 3.14732L16.7518 3.14398C16.7616 3.14289 16.7714 3.14163 16.7812 3.14064C16.7909 3.13964 16.8008 3.13892 16.8105 3.13802L16.8399 3.13546C16.8497 3.13463 16.8594 3.13383 16.8692 3.13313C16.879 3.13243 16.8888 3.13187 16.8986 3.13127C16.9084 3.13066 16.9181 3.12996 16.9279 3.12943C16.9377 3.1289 16.9475 3.12853 16.9573 3.1281L16.9867 3.12698C16.9965 3.12665 17.0062 3.12614 17.016 3.1259C17.0258 3.12565 17.0356 3.12568 17.0454 3.12553C17.0552 3.12539 17.0649 3.12522 17.0747 3.12517L17.0877 3.125H17.1041H17.1335H17.1628H17.1921H17.2215H17.2509H17.2802H17.3096H17.3389H17.3683H17.3976H17.427H17.4563H17.4857H17.515H17.5444H17.5738H17.6031H17.6325H17.6618H17.6912H17.7205H17.7499H17.7792H17.8086H17.838H17.8673H17.8967H17.926H17.9554H17.9847H18.0141H18.0435H18.0728H18.1022H18.1315H18.1609H18.1902H18.2196H18.2489H18.2783H18.3076H18.337H18.3664H18.3957H18.425H18.4544H18.4838H18.5131H18.5425H18.5718H18.6012H18.6305H18.6599H18.6892H18.7186H18.748H18.7773H18.8067H18.836H18.8654H18.8947H18.9241H18.9534H18.9828H19.0122H19.0415H19.0709H19.1002H19.1296H19.1589H19.1883H19.2176H19.247H19.2764H19.3057H19.3351H19.3644H19.3938H19.4231H19.4525H19.4818H19.5112H19.5405H19.5699H19.5993H19.6286H19.658H19.6873H19.7167H19.746H19.7754H19.8047H19.8341H19.8634H19.8928H19.9222H19.9515H19.9809H20.0102H20.0396H20.0689H20.0983H20.1276H20.157H20.1864H20.2157H20.2451H20.2744H20.3038H20.3331H20.3625H20.3918H20.4212H20.4505H20.4799H20.5093H20.5386H20.568H20.5973H20.6267H20.656H20.6854H20.7147H20.7441H20.7734H20.8028H20.8322H20.8615H20.8909H20.9202H20.9496H20.9789H21.0083H21.0376H21.067H21.0963H21.1257H21.1551H21.1844H21.2138H21.2431H21.2725H21.3018H21.3312H21.3605H21.3899H21.4193H21.4486H21.478H21.5073H21.5367H21.5616V18.253C21.5616 18.3846 21.5531 18.5141 21.5367 18.6412C21.5288 18.7024 21.5189 18.763 21.5073 18.823C21.4986 18.8687 21.4888 18.914 21.478 18.9589C21.4688 18.9967 21.4591 19.0343 21.4486 19.0716C21.4394 19.1043 21.4296 19.1368 21.4193 19.169C21.4099 19.1982 21.4001 19.2271 21.3899 19.2559C21.3805 19.2826 21.3707 19.3091 21.3605 19.3354C21.3511 19.3599 21.3413 19.3843 21.3312 19.4086C21.3217 19.4314 21.3119 19.4542 21.3018 19.4767C21.2923 19.4981 21.2825 19.5193 21.2725 19.5405C21.2629 19.5606 21.2531 19.5807 21.2431 19.6006C21.2335 19.6197 21.2237 19.6387 21.2138 19.6576C21.2041 19.6758 21.1944 19.6939 21.1844 19.7119C21.1748 19.7293 21.1651 19.7466 21.1551 19.7637C21.1455 19.7803 21.1356 19.7967 21.1257 19.813C21.1161 19.8289 21.1063 19.8445 21.0963 19.8602C21.0867 19.8754 21.0769 19.8906 21.067 19.9057C21.0573 19.9204 21.0476 19.9352 21.0376 19.9497C21.028 19.9638 21.0182 19.9778 21.0083 19.9918C20.9986 20.0054 20.9888 20.0189 20.9789 20.0324C20.9692 20.0456 20.9595 20.0588 20.9496 20.0719C20.9399 20.0847 20.9301 20.0973 20.9202 20.1099C20.9106 20.1223 20.9007 20.1345 20.8909 20.1467C20.8811 20.1587 20.8714 20.1707 20.8615 20.1826C20.8518 20.1942 20.842 20.2056 20.8322 20.2171C20.8225 20.2284 20.8127 20.2395 20.8028 20.2507C20.7931 20.2616 20.7833 20.2727 20.7734 20.2835C20.7638 20.2941 20.7539 20.3045 20.7441 20.315C20.7344 20.3254 20.7246 20.3358 20.7147 20.3461C20.705 20.3561 20.6952 20.366 20.6854 20.3759C20.6757 20.3857 20.6659 20.3954 20.656 20.4051C20.6463 20.4147 20.6365 20.4242 20.6267 20.4336C20.617 20.4429 20.6072 20.452 20.5973 20.4612C20.5876 20.4703 20.5778 20.4794 20.568 20.4884C20.5583 20.4972 20.5484 20.5058 20.5386 20.5144C20.5288 20.5231 20.5191 20.5318 20.5093 20.5403C20.4996 20.5486 20.4897 20.5568 20.4799 20.565C20.4701 20.5732 20.4604 20.5815 20.4505 20.5895C20.4408 20.5975 20.431 20.6052 20.4212 20.613C20.4114 20.6208 20.4017 20.6287 20.3918 20.6363C20.3821 20.6439 20.3723 20.6512 20.3625 20.6587C20.3527 20.6661 20.343 20.6735 20.3331 20.6808C20.3234 20.688 20.3136 20.695 20.3038 20.7021C20.294 20.7092 20.2843 20.7163 20.2744 20.7232C20.2647 20.73 20.2549 20.7367 20.2451 20.7434C20.2353 20.7502 20.2256 20.757 20.2157 20.7636C20.206 20.7701 20.1961 20.7764 20.1864 20.7828C20.1766 20.7892 20.1669 20.7957 20.157 20.8019C20.1473 20.8081 20.1374 20.8141 20.1276 20.8202C20.1179 20.8262 20.1081 20.8324 20.0983 20.8383C20.0886 20.8442 20.0787 20.8499 20.0689 20.8557C20.0592 20.8614 20.0494 20.8673 20.0396 20.8729C20.0298 20.8785 20.02 20.884 20.0102 20.8895L19.9809 20.9058L19.9515 20.9216L19.9222 20.937C19.9124 20.942 19.9026 20.9471 19.8928 20.9521C19.8831 20.957 19.8733 20.9618 19.8634 20.9666C19.8537 20.9714 19.8439 20.9763 19.8341 20.981C19.8244 20.9856 19.8145 20.9901 19.8047 20.9946C19.795 20.9992 19.7852 21.0038 19.7754 21.0082C19.7656 21.0127 19.7558 21.0169 19.746 21.0212L19.7167 21.0339L19.6873 21.0463L19.658 21.0582C19.6482 21.0622 19.6384 21.0662 19.6286 21.07C19.6189 21.0738 19.609 21.0774 19.5993 21.0811C19.5895 21.0848 19.5797 21.0886 19.5699 21.0922C19.5601 21.0958 19.5503 21.0992 19.5405 21.1027L19.5112 21.113L19.4818 21.1229C19.4721 21.1262 19.4623 21.1292 19.4525 21.1324C19.4427 21.1355 19.4329 21.1388 19.4231 21.1419C19.4134 21.1449 19.4035 21.1477 19.3938 21.1506L19.3644 21.1593L19.3351 21.1676C19.3253 21.1703 19.3155 21.1729 19.3057 21.1754C19.2959 21.1781 19.2862 21.1808 19.2764 21.1833C19.2666 21.1858 19.2568 21.1881 19.247 21.1905C19.2372 21.1929 19.2274 21.1953 19.2176 21.1976L19.1883 21.2043L19.1589 21.2106C19.1491 21.2127 19.1394 21.215 19.1296 21.217C19.1198 21.219 19.11 21.2207 19.1002 21.2226L19.0709 21.2282L19.0415 21.2334C19.0318 21.2351 19.022 21.2367 19.0122 21.2383C19.0024 21.2399 18.9926 21.2416 18.9828 21.2431C18.973 21.2446 18.9632 21.2459 18.9534 21.2473L18.9241 21.2514C18.9143 21.2527 18.9045 21.254 18.8947 21.2552C18.885 21.2564 18.8752 21.2574 18.8654 21.2585C18.8556 21.2597 18.8458 21.2609 18.836 21.2619C18.8263 21.2629 18.8165 21.2638 18.8067 21.2647L18.7773 21.2673C18.7675 21.2681 18.7578 21.2691 18.748 21.2698C18.7382 21.2706 18.7284 21.2711 18.7186 21.2717L18.6892 21.2735L18.6599 21.2751C18.6501 21.2756 18.6403 21.2758 18.6305 21.2762C18.6207 21.2765 18.611 21.277 18.6012 21.2773C18.5914 21.2776 18.5816 21.2777 18.5718 21.2779L18.5425 21.2782C18.5333 21.2783 18.5242 21.2786 18.5151 21.2786H18.5131H18.4838H18.4544H18.425H18.3957H18.3664H18.337H18.3076H18.2783H18.2489H18.2196H18.1902H18.1609H18.1315H18.1022H18.0728H18.0435H18.0141H17.9847H17.9554H17.926H17.8967H17.8673H17.838H17.8086H17.7792H17.7499H17.7205H17.6912H17.6618H17.6325H17.6031H17.5738H17.5444H17.515H17.4857H17.4563H17.427H17.3976H17.3683H17.3389H17.3096H17.2802H17.2509H17.2215H17.1921H17.1628H17.1335H17.1041H17.0747H17.0454H17.016H16.9867H16.9573H16.9279H16.8986H16.8692H16.8399H16.8105H16.7812H16.7518H16.7225H16.6931H16.6638H16.6344H16.605H16.5757H16.5463H16.517H16.4876H16.4583H16.4289H16.3996H16.3702H16.3409H16.3115H16.2821H16.2528H16.2234H16.1941H16.1647H16.1354H16.106H16.0767H16.0473H16.018H15.9886H15.9592H15.9299H15.9005H15.8712H15.8418H15.8125H15.7831H15.7538H15.7244H15.695H15.6657H15.6363H15.607H15.5776H15.5483H15.5189H15.4896H15.4602H15.4309H15.4015H15.3721H15.3428H15.3134H15.2841H15.2547H15.2254H15.196H15.1667H15.1373H15.108H15.0786H15.0492H15.0199H14.9905H14.9612H14.9318H14.9025H14.8731H14.8438H14.8144H14.7851H14.7557H14.7264H14.697H14.6677H14.6383H14.6089H14.5796H14.5502H14.5209H14.4915H14.4622H14.4328H14.4035H14.3741H14.3447H14.3154H14.286H14.2567H14.2273H14.198H14.1686H14.1392H14.1099H14.0469V14.2929C14.0674 14.3104 14.0885 14.3277 14.1099 14.3449C14.1196 14.3527 14.1294 14.3604 14.1392 14.3681C14.149 14.3757 14.1587 14.3833 14.1686 14.3908C14.1784 14.3982 14.1881 14.4056 14.198 14.413C14.2077 14.4202 14.2175 14.4273 14.2273 14.4344C14.237 14.4414 14.2468 14.4484 14.2567 14.4553C14.2664 14.4622 14.2762 14.469 14.286 14.4758L14.3154 14.4958C14.3251 14.5023 14.3349 14.5088 14.3447 14.5152L14.3741 14.5342C14.3838 14.5405 14.3936 14.5467 14.4035 14.5529C14.4131 14.5589 14.423 14.5649 14.4328 14.5709L14.4622 14.5887C14.4719 14.5945 14.4817 14.6003 14.4915 14.606C14.5012 14.6117 14.511 14.6173 14.5209 14.6229L14.5502 14.6394L14.5796 14.6556L14.6089 14.6714C14.6187 14.6765 14.6284 14.6818 14.6383 14.6869C14.648 14.692 14.6578 14.6969 14.6677 14.7019L14.697 14.7167L14.7264 14.7312L14.7557 14.7453C14.7655 14.7499 14.7752 14.7546 14.7851 14.7592L14.8144 14.7727L14.8438 14.786L14.8731 14.7989L14.9025 14.8117L14.9318 14.8241L14.9612 14.8363L14.9905 14.8482L15.0199 14.8598L15.0492 14.8714L15.0786 14.8824C15.0884 14.8861 15.0981 14.8898 15.108 14.8935L15.1373 14.9041C15.1471 14.9076 15.1568 14.9112 15.1667 14.9147C15.1764 14.9182 15.1862 14.9215 15.196 14.9249L15.2254 14.935L15.2547 14.9448C15.2645 14.948 15.2742 14.9513 15.2841 14.9545C15.2938 14.9577 15.3036 14.9608 15.3134 14.9639L15.3428 14.9732L15.3721 14.9822L15.4015 14.9911L15.4309 14.9997L15.4602 15.0082L15.4896 15.0165L15.5189 15.0247L15.5483 15.0326L15.5776 15.0404L15.607 15.048L15.6363 15.0554L15.6657 15.0628L15.695 15.0698L15.7244 15.0769L15.7538 15.0836L15.7831 15.0903L15.8125 15.0968L15.8418 15.1032L15.8712 15.1094L15.9005 15.1154L15.9299 15.1215L15.9592 15.1272L15.9886 15.1329L16.018 15.1384L16.0473 15.1437L16.0767 15.1491L16.106 15.1541L16.1354 15.1592L16.1647 15.164L16.1941 15.1688L16.2234 15.1735L16.2528 15.1779L16.2821 15.1824L16.3115 15.1866L16.3409 15.1908L16.3702 15.1949L16.3996 15.1987L16.4289 15.2026L16.4583 15.2063L16.4876 15.2098L16.517 15.2134L16.5463 15.2168L16.5757 15.22L16.605 15.2233L16.6344 15.2263L16.6638 15.2293L16.6931 15.2322L16.7225 15.2349L16.7518 15.2377L16.7812 15.2402L16.8105 15.2427L16.8399 15.2452L16.8692 15.2474L16.8986 15.2496L16.9279 15.2519L16.9573 15.2538L16.9867 15.2558L17.016 15.2577L17.0454 15.2594L17.0747 15.2611L17.1041 15.2628L17.1335 15.2642L17.1628 15.2657L17.1921 15.2671L17.2215 15.2683L17.2509 15.2695L17.2802 15.2706L17.3096 15.2716L17.3389 15.2726L17.3683 15.2735L17.3976 15.2743L17.427 15.275L17.4563 15.2757L17.4857 15.2762L17.515 15.2767L17.5444 15.2772L17.5738 15.2775L17.6031 15.2778L17.6325 15.278L17.6618 15.2782L17.6912 15.2782L17.7205 15.2782L17.7499 15.2782L17.7792 15.278L17.8086 15.2778L17.838 15.2776L17.8673 15.2772L17.8967 15.2768L17.926 15.2764L17.9554 15.2758L17.9847 15.2752L18.0141 15.2746L18.0435 15.2739L18.0728 15.2731L18.1022 15.2723L18.1315 15.2714L18.1609 15.2704L18.1902 15.2694L18.2196 15.2684L18.2489 15.2672L18.2783 15.266L18.3076 15.2647L18.322 15.2641L18.337 15.2634L18.3664 15.262L18.3957 15.2605L18.425 15.2589L18.4544 15.2571L18.4838 15.2553L18.5131 15.2533L18.5425 15.2514L18.5718 15.2492L18.6012 15.247L18.6305 15.2447L18.6599 15.2423L18.6892 15.2398L18.7186 15.2373L18.748 15.2346L18.7773 15.2319L18.8067 15.2291L18.836 15.2262L18.8654 15.2232L18.8947 15.2201L18.9241 15.217L18.9534 15.2138L18.9828 15.2105L19.0122 15.2071L19.0415 15.2037L19.0709 15.2002L19.1002 15.1966L19.1296 15.193L19.1589 15.1892L19.1883 15.1855L19.2176 15.1816L19.247 15.1777L19.2764 15.1737L19.3057 15.1696L19.3351 15.1655L19.3644 15.1613L19.3938 15.157L19.4231 15.1527L19.4525 15.1483L19.4818 15.1439L19.5112 15.1393L19.5405 15.1348L19.5699 15.1301L19.5993 15.1254L19.6286 15.1207L19.658 15.1159L19.6873 15.111L19.7167 15.1061L19.746 15.1011L19.7754 15.096L19.8047 15.0909L19.8341 15.0857L19.8634 15.0805L19.8928 15.0752L19.9222 15.0699L19.9515 15.0645L19.9809 15.059L20.0102 15.0535L20.0396 15.0479L20.0689 15.0423L20.0983 15.0366L20.1276 15.0309L20.157 15.0251L20.1864 15.0193L20.2157 15.0134L20.2451 15.0074L20.2744 15.0013L20.3038 14.9953L20.3331 14.9891L20.3625 14.9829L20.3918 14.9766L20.4212 14.9703L20.4505 14.9639L20.4799 14.9574L20.5093 14.9509L20.5386 14.9443L20.568 14.9376L20.5973 14.9309L20.6267 14.924L20.656 14.9171L20.6854 14.9101L20.7146 14.9029V13.6231L20.6854 13.6375L20.656 13.6519L20.6267 13.6662L20.5973 13.6803L20.568 13.6943L20.5386 13.7082L20.5093 13.7219L20.4799 13.7355L20.4505 13.7489L20.4212 13.7623L20.3918 13.7754L20.3625 13.7884L20.3331 13.8012L20.3038 13.8139L20.2744 13.8265L20.2451 13.8389L20.2157 13.8511L20.1864 13.8632L20.157 13.8751L20.1276 13.8869L20.0983 13.8985L20.0689 13.91L20.0396 13.9212L20.0102 13.9324L19.9809 13.9433L19.9515 13.9541L19.9222 13.9647L19.8928 13.9752L19.8634 13.9855L19.8341 13.9957L19.8047 14.0056L19.7754 14.0154L19.746 14.0251L19.7167 14.0345L19.6873 14.0439L19.658 14.053L19.6286 14.062L19.5993 14.0708L19.5699 14.0794L19.5405 14.0879L19.5112 14.0962L19.4818 14.1044L19.4525 14.1123L19.4231 14.1202L19.3938 14.1278L19.3644 14.1353L19.3351 14.1426L19.3057 14.1497L19.2764 14.1568L19.247 14.1636L19.2176 14.1702L19.1883 14.1767L19.1589 14.1831L19.1296 14.1892L19.1002 14.1952L19.0709 14.2011L19.0415 14.2068L19.0122 14.2123L18.9828 14.2176L18.9534 14.2228L18.9241 14.2279L18.8947 14.2327L18.8654 14.2374L18.836 14.242L18.8067 14.2464L18.7773 14.2507L18.748 14.2548L18.7186 14.2587L18.6892 14.2625L18.6599 14.2661L18.6305 14.2696L18.6012 14.2729L18.5718 14.276L18.5425 14.279L18.5131 14.2818L18.4838 14.2846L18.4544 14.2871L18.425 14.2895L18.4073 14.2909L18.3957 14.2917L18.3664 14.2936L18.337 14.2956L18.3076 14.2971L18.2783 14.2986L18.2489 14.3L18.2196 14.3009L18.1902 14.3019L18.1609 14.3025L18.1315 14.3029L18.1022 14.3033C18.0923 14.3033 18.0826 14.3032 18.0728 14.3032L18.0435 14.3031L18.0141 14.3027L17.9847 14.302L17.9554 14.3013C17.9455 14.301 17.9358 14.3005 17.926 14.3001C17.9163 14.2997 17.9064 14.2994 17.8967 14.2989L17.8673 14.2973L17.838 14.2955L17.8086 14.2935L17.7792 14.2912C17.7695 14.2904 17.7596 14.2897 17.7499 14.2888C17.74 14.2879 17.7303 14.2869 17.7205 14.2859L17.6912 14.283L17.6618 14.2796L17.6325 14.2761L17.6031 14.2722L17.5738 14.2681C17.564 14.2666 17.5541 14.2653 17.5444 14.2637C17.5346 14.2622 17.5248 14.2605 17.515 14.2589C17.5053 14.2573 17.4954 14.2558 17.4857 14.2541C17.4758 14.2523 17.4661 14.2504 17.4563 14.2486C17.4466 14.2468 17.4367 14.2451 17.427 14.2432C17.4171 14.2412 17.4074 14.2391 17.3976 14.2371C17.3878 14.235 17.378 14.2331 17.3683 14.2309C17.3584 14.2288 17.3487 14.2265 17.3389 14.2242L17.3096 14.2174C17.2997 14.215 17.29 14.2125 17.2802 14.21C17.2704 14.2075 17.2606 14.2051 17.2509 14.2025C17.241 14.1999 17.2313 14.1971 17.2215 14.1944C17.2117 14.1917 17.2019 14.1889 17.1921 14.1861C17.1823 14.1832 17.1725 14.1802 17.1628 14.1773C17.153 14.1743 17.1432 14.1713 17.1335 14.1682C17.1236 14.165 17.1138 14.1618 17.1041 14.1585C17.0943 14.1553 17.0844 14.152 17.0747 14.1486C17.0649 14.1452 17.0551 14.1416 17.0454 14.1381C17.0356 14.1346 17.0257 14.131 17.016 14.1274C17.0062 14.1237 16.9964 14.1198 16.9867 14.1159C16.9769 14.1121 16.967 14.1083 16.9573 14.1044C16.9474 14.1003 16.9377 14.0961 16.9279 14.0919C16.9181 14.0877 16.9083 14.0836 16.8986 14.0793C16.8887 14.0749 16.879 14.0703 16.8692 14.0658C16.8594 14.0613 16.8496 14.0567 16.8399 14.0521C16.83 14.0473 16.8203 14.0425 16.8105 14.0377C16.8007 14.0327 16.7909 14.0277 16.7812 14.0227C16.7714 14.0176 16.7615 14.0125 16.7518 14.0072C16.7419 14.0019 16.7322 13.9964 16.7225 13.9909C16.7126 13.9853 16.7028 13.9798 16.6931 13.9741C16.6832 13.9683 16.6735 13.9624 16.6638 13.9565C16.6539 13.9505 16.6441 13.9444 16.6344 13.9382C16.6246 13.932 16.6147 13.9258 16.605 13.9195C16.5951 13.9129 16.5855 13.9062 16.5757 13.8995C16.5658 13.8927 16.556 13.8858 16.5463 13.8789C16.5365 13.8718 16.5266 13.8648 16.517 13.8576C16.5071 13.8502 16.4973 13.8426 16.4876 13.835C16.4778 13.8273 16.468 13.8196 16.4583 13.8117C16.4484 13.8037 16.4386 13.7957 16.4289 13.7875C16.419 13.7791 16.4093 13.7705 16.3996 13.7619C16.3896 13.7531 16.3799 13.7442 16.3702 13.7352C16.3603 13.726 16.3505 13.7168 16.3409 13.7074C16.331 13.6978 16.3211 13.6882 16.3115 13.6784C16.3015 13.6683 16.2918 13.658 16.2821 13.6476C16.2722 13.637 16.2625 13.6262 16.2528 13.6154C16.2429 13.6042 16.2331 13.5929 16.2234 13.5814C16.2135 13.5697 16.2037 13.5578 16.1941 13.5458C16.1841 13.5333 16.1743 13.5207 16.1647 13.508C16.1548 13.4948 16.145 13.4816 16.1354 13.4681C16.1254 13.4541 16.1156 13.4399 16.106 13.4255C16.096 13.4106 16.0862 13.3954 16.0767 13.3801C16.0666 13.364 16.0568 13.3477 16.0473 13.3313C16.0372 13.314 16.0275 13.2964 16.018 13.2787C16.0078 13.2599 15.9981 13.2408 15.9886 13.2215C15.9785 13.201 15.9687 13.1802 15.9592 13.1592C15.9491 13.1365 15.9392 13.1137 15.9299 13.0904C15.9195 13.0648 15.9099 13.0386 15.9005 13.0121C15.8902 12.9828 15.8803 12.9532 15.8712 12.923C15.8606 12.8879 15.8508 12.8523 15.8418 12.8161C15.8307 12.7711 15.821 12.7251 15.8125 12.6782C15.7998 12.6087 15.79 12.5373 15.7831 12.464C15.7752 12.3793 15.7712 12.292 15.7712 12.2023C15.7712 12.1125 15.7752 12.0251 15.7831 11.9404C15.79 11.867 15.7998 11.7956 15.8125 11.7261C15.821 11.6792 15.8307 11.6331 15.8418 11.5881C15.8508 11.5519 15.8606 11.5163 15.8712 11.4812C15.8803 11.451 15.8902 11.4213 15.9005 11.3919C15.9099 11.3655 15.9195 11.3393 15.9299 11.3136C15.9392 11.2904 15.9491 11.2675 15.9592 11.2449C15.9687 11.2238 15.9785 11.203 15.9886 11.1825C15.9981 11.1632 16.0078 11.1441 16.018 11.1253C16.0275 11.1075 16.0372 11.09 16.0473 11.0726C16.0568 11.0562 16.0666 11.0399 16.0767 11.0238C16.0862 11.0085 16.096 10.9933 16.106 10.9783C16.1156 10.964 16.1254 10.9498 16.1354 10.9358C16.145 10.9223 16.1548 10.909 16.1647 10.8958C16.1743 10.8831 16.1841 10.8705 16.1941 10.8581C16.2037 10.846 16.2135 10.8342 16.2234 10.8224C16.2331 10.811 16.2429 10.7996 16.2528 10.7885C16.2625 10.7776 16.2722 10.7668 16.2821 10.7562C16.2918 10.7458 16.3015 10.7355 16.3115 10.7253C16.3211 10.7155 16.331 10.7059 16.3409 10.6963C16.3505 10.687 16.3603 10.6777 16.3702 10.6686C16.3799 10.6596 16.3896 10.6506 16.3996 10.6418C16.4093 10.6332 16.419 10.6246 16.4289 10.6162C16.4386 10.608 16.4484 10.6 16.4583 10.592C16.468 10.5842 16.4778 10.5764 16.4876 10.5687C16.4973 10.5611 16.5071 10.5535 16.517 10.5461C16.5266 10.5389 16.5365 10.5319 16.5463 10.5248C16.556 10.5178 16.5658 10.511 16.5757 10.5042C16.5855 10.4975 16.5951 10.4908 16.605 10.4842C16.6147 10.4778 16.6246 10.4716 16.6344 10.4654C16.6441 10.4592 16.6539 10.4531 16.6638 10.4471C16.6735 10.4412 16.6832 10.4353 16.6931 10.4295C16.7028 10.4238 16.7126 10.4183 16.7225 10.4128C16.7322 10.4073 16.7419 10.4018 16.7518 10.3964C16.7615 10.3912 16.7714 10.3861 16.7812 10.381C16.7909 10.3759 16.8007 10.3709 16.8105 10.366C16.8203 10.3611 16.83 10.3563 16.8399 10.3515C16.8496 10.3469 16.8594 10.3423 16.8692 10.3378C16.879 10.3333 16.8887 10.3287 16.8986 10.3243C16.9083 10.32 16.9181 10.3159 16.9279 10.3117C16.9377 10.3075 16.9474 10.3033 16.9573 10.2993C16.967 10.2953 16.9769 10.2915 16.9867 10.2876C16.9964 10.2838 17.0062 10.2799 17.016 10.2762C17.0257 10.2725 17.0356 10.269 17.0454 10.2655C17.0551 10.2619 17.0649 10.2584 17.0747 10.2549C17.0844 10.2516 17.0943 10.2483 17.1041 10.245C17.1138 10.2418 17.1236 10.2386 17.1335 10.2354C17.1432 10.2323 17.153 10.2293 17.1628 10.2263C17.1725 10.2233 17.1823 10.2204 17.1921 10.2175L17.2215 10.2092C17.2313 10.2065 17.241 10.2037 17.2509 10.2011C17.2606 10.1985 17.2704 10.196 17.2802 10.1935C17.29 10.1911 17.2997 10.1885 17.3096 10.1862L17.3389 10.1793C17.3487 10.1771 17.3584 10.1748 17.3683 10.1726C17.378 10.1705 17.3878 10.1685 17.3976 10.1665C17.4074 10.1644 17.4171 10.1623 17.427 10.1604C17.4367 10.1585 17.4466 10.1567 17.4563 10.1549C17.4661 10.1531 17.4758 10.1512 17.4857 10.1495C17.4954 10.1477 17.5053 10.1462 17.515 10.1446C17.5248 10.143 17.5346 10.1413 17.5444 10.1398L17.5738 10.1355L17.6031 10.1313L17.6325 10.1275L17.6618 10.1239L17.6912 10.1205L17.7205 10.1176C17.7303 10.1166 17.74 10.1156 17.7499 10.1147C17.7596 10.1138 17.7695 10.1131 17.7792 10.1123L17.8086 10.11L17.838 10.108L17.8673 10.1062L17.8967 10.1046C17.9064 10.1041 17.9163 10.1038 17.926 10.1034C17.9358 10.103 17.9455 10.1025 17.9554 10.1022L17.9847 10.1015L18.0141 10.1009L18.0435 10.1004L18.0728 10.1003C18.0826 10.1003 18.0923 10.1002 18.1022 10.1002L18.1315 10.1006L18.1609 10.101L18.1902 10.1017L18.2196 10.1026L18.2489 10.1035L18.2783 10.1049L18.3076 10.1064L18.337 10.1079L18.3664 10.1099L18.3957 10.1118L18.4073 10.1126L18.425 10.114L18.4544 10.1163L18.4838 10.1189L18.5131 10.1215L18.5425 10.1243L18.5718 10.1273L18.6012 10.1304L18.6305 10.1337L18.6599 10.1371L18.6892 10.1406L18.7186 10.1443L18.748 10.1482L18.7773 10.1523L18.8067 10.1565L18.836 10.1608L18.8654 10.1653L18.8947 10.17L18.9241 10.1748L18.9534 10.1798L18.9828 10.1849L19.0122 10.1902L19.0415 10.1957L19.0709 10.2013L19.1002 10.2071L19.1296 10.2131L19.1589 10.2192L19.1883 10.2255L19.2176 10.2319L19.247 10.2385L19.2764 10.2453L19.3057 10.2523L19.3351 10.2594L19.3644 10.2667L19.3938 10.2741L19.4231 10.2817L19.4525 10.2895L19.4818 10.2975L19.5112 10.3056L19.5405 10.3139L19.5699 10.3223L19.5993 10.331L19.6286 10.3398L19.658 10.3488L19.6873 10.3579L19.7167 10.3672L19.746 10.3767L19.7754 10.3863L19.8047 10.3962L19.8341 10.4061L19.8634 10.4163L19.8928 10.4266L19.9222 10.4371L19.9515 10.4478L19.9809 10.4586L20.0102 10.4697L20.0396 10.4808L20.0689 10.4922L20.0983 10.5037L20.1276 10.5153L20.157 10.5272L20.1864 10.5392L20.2157 10.5513L20.2451 10.5637L20.2744 10.5761L20.3038 10.5888L20.3331 10.6016L20.3625 10.6145L20.3918 10.6276L20.4212 10.6409L20.4505 10.6543L20.4799 10.6679L20.5093 10.6816L20.5386 10.6954L20.568 10.7094L20.5973 10.7236L20.6267 10.7378L20.656 10.7522L20.6854 10.7668L20.7146 10.7814V9.50057L20.6854 9.4934L20.656 9.48638L20.6267 9.47946L20.5973 9.47261L20.568 9.46586L20.5386 9.4592L20.5093 9.4526L20.4799 9.44606L20.4505 9.43962L20.4212 9.43321L20.3918 9.42689L20.3625 9.42065L20.3331 9.4144L20.3038 9.40828L20.2744 9.4022L20.2451 9.39618L20.2157 9.3902L20.1864 9.38429L20.157 9.37844L20.1276 9.37265L20.0983 9.36694L20.0689 9.36123L20.0396 9.35561L20.0102 9.35004L19.9809 9.34455L19.9515 9.3391L19.9222 9.33371L19.8928 9.32838L19.8634 9.3231L19.8341 9.31788L19.8047 9.31272L19.7754 9.30761L19.746 9.30256L19.7167 9.29759L19.6873 9.29266L19.658 9.28779L19.6286 9.28297L19.5993 9.27823L19.5699 9.27356L19.5405 9.26891L19.5112 9.26436L19.4818 9.25983L19.4525 9.25541L19.4231 9.25102L19.3938 9.24669L19.3644 9.24246L19.3351 9.23827L19.3057 9.23415L19.2764 9.23011L19.247 9.22612L19.2176 9.2222L19.1883 9.21833L19.1589 9.21457L19.1296 9.21085L19.1002 9.20719L19.0709 9.20361L19.0415 9.20012L19.0122 9.19671L18.9828 9.19335L18.9534 9.19008L18.9241 9.18686L18.8947 9.18376L18.8654 9.18069L18.836 9.17776L18.8067 9.17485L18.7773 9.17205L18.748 9.16931L18.7186 9.1667L18.6892 9.16413L18.6599 9.16166L18.6305 9.15929L18.6012 9.15699L18.5718 9.15484L18.5425 9.15268L18.5131 9.15072L18.4838 9.14876L18.4544 9.147L18.425 9.14525L18.3957 9.14366L18.3664 9.14213L18.337 9.14073L18.322 9.14002L18.3076 9.13942L18.2783 9.13821L18.2489 9.137L18.2196 9.13579L18.1902 9.13477L18.1609 9.13378L18.1315 9.13276L18.1022 9.13189L18.0728 9.13107L18.0435 9.13027L18.0141 9.12952L17.9847 9.12891L17.9554 9.12833L17.926 9.12773L17.8967 9.12734L17.8673 9.12695L17.838 9.12657L17.8086 9.12633L17.7792 9.12618L17.7499 9.12601L17.7205 9.12594L17.6912 9.12599L17.6618 9.12603L17.6325 9.12613L17.6031 9.1264L17.5738 9.12669L17.5444 9.12698L17.515 9.12749L17.4857 9.12797L17.4563 9.12848L17.427 9.12921L17.3976 9.12993L17.3683 9.13066L17.3389 9.1316L17.3096 9.13257L17.2802 9.13354L17.2509 9.13472L17.2215 9.13593L17.1921 9.13712L17.1628 9.13855L17.1335 9.14L17.1041 9.14143L17.0747 9.1431L17.0454 9.14479L17.016 9.14649L16.9867 9.14842L16.9573 9.15038L16.9279 9.15235L16.8986 9.15457L16.8692 9.15677L16.8399 9.15905L16.8105 9.16152L16.7812 9.16396L16.7518 9.16655L16.7225 9.16929L16.6931 9.17202L16.6638 9.17493L16.6344 9.17795L16.605 9.18095L16.5757 9.18422L16.5463 9.18749L16.517 9.19083L16.4876 9.19441L16.4583 9.19797L16.4289 9.20172L16.3996 9.20557L16.3702 9.20942L16.3409 9.21353L16.3115 9.21767L16.2821 9.22193L16.2528 9.22638L16.2234 9.23081L16.1941 9.23551L16.1647 9.24028L16.1354 9.24514L16.106 9.25018L16.0767 9.25524L16.0473 9.26056L16.018 9.26596L15.9886 9.27148L15.9592 9.27716L15.9299 9.28288L15.9005 9.2889L15.8712 9.29493L15.8418 9.30118L15.8125 9.30754L15.7831 9.31403L15.7538 9.32073L15.7244 9.32746L15.695 9.33453L15.6657 9.3416L15.6363 9.34893L15.607 9.35636L15.5776 9.36401L15.5483 9.3718L15.5189 9.37974L15.4896 9.3879L15.4602 9.39618L15.4309 9.40472L15.4015 9.41331L15.3721 9.42224L15.3428 9.43122L15.3134 9.44057C15.3036 9.44369 15.2938 9.44674 15.2841 9.44991L15.2547 9.45966C15.2449 9.46291 15.2351 9.4661 15.2254 9.46942L15.196 9.47958L15.1667 9.48975C15.1568 9.49324 15.1471 9.49684 15.1373 9.50037C15.1275 9.50391 15.1177 9.50739 15.108 9.511L15.0786 9.52206C15.0688 9.52576 15.0589 9.5294 15.0492 9.53315L15.0199 9.54467L14.9905 9.55629L14.9612 9.56827L14.9318 9.58042L14.9025 9.59286L14.8731 9.60559L14.8438 9.61852L14.8144 9.63185L14.7851 9.64531C14.7752 9.64991 14.7655 9.6546 14.7557 9.65925L14.7264 9.67336L14.697 9.68786L14.6677 9.70267C14.6578 9.70768 14.648 9.71264 14.6383 9.7177C14.6284 9.72283 14.6187 9.72806 14.6089 9.73327L14.5796 9.74905L14.5502 9.76519C14.5404 9.77069 14.5306 9.77623 14.5209 9.7818C14.511 9.78739 14.5012 9.79295 14.4915 9.79862C14.4817 9.80435 14.4719 9.81016 14.4622 9.81597C14.4523 9.82185 14.4425 9.82778 14.4328 9.83374C14.423 9.83974 14.4131 9.84574 14.4035 9.85179C14.3936 9.85797 14.3838 9.86421 14.3741 9.87043L14.3447 9.88948C14.3349 9.89594 14.3251 9.90236 14.3154 9.90889L14.286 9.92888C14.2762 9.93569 14.2664 9.94254 14.2567 9.94938C14.2468 9.95633 14.237 9.96333 14.2273 9.97037C14.2175 9.97749 14.2077 9.98458 14.198 9.99177C14.1881 9.99912 14.1784 10.0065 14.1686 10.014C14.1587 10.0215 14.149 10.0291 14.1392 10.0367C14.1294 10.0444 14.1196 10.0521 14.1099 10.0599V10.0599Z" fill="#E10238"/>
</g>
</svg>
